<?xml version="1.0" encoding="utf-8"?>
<!-- Generator: Adobe Illustrator 28.1.0, SVG Export Plug-In . SVG Version: 6.00 Build 0)  -->
<svg version="1.1" id="katman_1" xmlns="http://www.w3.org/2000/svg" xmlns:xlink="http://www.w3.org/1999/xlink" x="0px" y="0px"
	 viewBox="0 0 238.7 173.8" style="enable-background:new 0 0 238.7 173.8;" xml:space="preserve">
<style type="text/css">
	.st0{fill:#373636;}
	.st1{fill:none;stroke:#2D2C2C;stroke-miterlimit:10;}
	.st2{fill:#FFFFFF;}
	.st3{fill:#7F7F7F;}
	.st4{fill:#E4F8FD;}
	.st5{fill:#CDE6ED;}
	.st6{fill:#2D2C2C;}
</style>
<rect x="384.9" y="-216.3" class="st0" width="194.6" height="829.7"/>
<g>
	<text transform="matrix(1 0 0 1 438.7083 -105.7538)" class="st2" style="font-family:'HelveticaNeue-Bold'; font-size:13px;">ANA SAYFA</text>
</g>
<line class="st1" x1="384.9" y1="-138.5" x2="579.5" y2="-138.5"/>
<line class="st1" x1="384.9" y1="-85" x2="579.5" y2="-85"/>
<text transform="matrix(1 0 0 1 438.7083 -52.224)" class="st3" style="font-family:'HelveticaNeue-Bold'; font-size:13px;">ARAÇLARIM</text>
<line class="st1" x1="384.9" y1="-85" x2="579.5" y2="-85"/>
<line class="st1" x1="384.9" y1="-31.4" x2="579.5" y2="-31.4"/>
<text transform="matrix(1 0 0 1 438.7083 1.3059)" class="st3" style="font-family:'HelveticaNeue-Bold'; font-size:13px;">AKARYAKIT</text>
<line class="st1" x1="384.9" y1="-31.4" x2="579.5" y2="-31.4"/>
<line class="st1" x1="384.9" y1="22.1" x2="579.5" y2="22.1"/>
<text transform="matrix(1 0 0 1 438.7083 54.8357)" class="st3" style="font-family:'HelveticaNeue-Bold'; font-size:13px;">RAPORLAR</text>
<line class="st1" x1="384.9" y1="22.1" x2="579.5" y2="22.1"/>
<line class="st1" x1="384.9" y1="75.6" x2="579.5" y2="75.6"/>
<line class="st1" x1="384.9" y1="75.6" x2="579.5" y2="75.6"/>
<line class="st1" x1="384.9" y1="415" x2="579.5" y2="415"/>
<text transform="matrix(1 0 0 1 438.7083 447.771)" class="st3" style="font-family:'HelveticaNeue-Bold'; font-size:13px;">KULLANICI PANELİ</text>
<line class="st1" x1="384.9" y1="415" x2="579.5" y2="415"/>
<line class="st1" x1="384.9" y1="468.6" x2="579.5" y2="468.6"/>
<text transform="matrix(1 0 0 1 438.7083 501.3009)" class="st3" style="font-family:'HelveticaNeue-Bold'; font-size:13px;">AYARLAR</text>
<line class="st1" x1="384.9" y1="468.6" x2="579.5" y2="468.6"/>
<line class="st1" x1="384.9" y1="522.1" x2="579.5" y2="522.1"/>
<text transform="matrix(1 0 0 1 438.7083 554.8306)" class="st3" style="font-family:'HelveticaNeue-Bold'; font-size:13px;">MENÜYÜ DARALT</text>
<line class="st1" x1="384.9" y1="522.1" x2="579.5" y2="522.1"/>
<line class="st1" x1="384.9" y1="575.6" x2="579.5" y2="575.6"/>
<g>
	<path class="st2" d="M413-105.8c-1.6,0-3.1,0-4.7,0c0-0.1,0-0.2,0-0.3c0-1.4,0-2.9,0-4.3c0-0.1,0-0.2,0-0.2c-1,0-2,0-3.1,0
		c0,0.1,0,0.2,0,0.3c0,1.3,0,2.5,0,3.8c0,0.3,0,0.5,0,0.8c-1.6,0-3.1,0-4.7,0c-0.5-0.2-0.7-0.4-0.7-1c0-1.9,0-3.8,0-5.7
		c0-0.1,0-0.2,0.1-0.3c1.8-1.5,3.5-3.1,5.3-4.6c0.5-0.4,1-0.8,1.5-1.3c0.1,0.1,0.1,0.1,0.2,0.1c2.2,1.9,4.4,3.8,6.6,5.7
		c0.1,0.1,0.1,0.2,0.1,0.3c0,1.9,0,3.8,0,5.7C413.7-106.2,413.6-106,413-105.8z"/>
	<path class="st2" d="M416.4-113.7c-0.2,0.3-0.5,0.6-0.7,0.9c-0.2,0.3-0.4,0.3-0.7,0.1c-2.7-2.3-5.3-4.7-8-7
		c-0.1-0.1-0.1-0.1-0.2-0.2c-0.3,0.3-0.6,0.5-0.9,0.8c-2.4,2.1-4.8,4.3-7.3,6.4c-0.3,0.2-0.5,0.2-0.7-0.1c-0.2-0.2-0.4-0.5-0.6-0.7
		c-0.2-0.3-0.2-0.5,0.1-0.7c2.1-1.9,4.2-3.7,6.4-5.6c0.7-0.6,1.4-1.2,2.1-1.8c0.5-0.4,1-0.5,1.6-0.2c0.2,0.1,0.3,0.2,0.4,0.3
		c0.9,0.8,1.7,1.5,2.6,2.3c0,0,0.1,0.1,0.2,0.1c0-0.1,0-0.2,0-0.2c0-0.7,0-1.4,0-2.1c0-0.4,0.1-0.5,0.5-0.5c0.7,0,1.4,0,2,0
		c0.4,0,0.5,0.1,0.5,0.5c0,1.6,0,3.2,0,4.8c0,0.1,0,0.2,0.1,0.3c0.8,0.7,1.6,1.4,2.3,2.1c0.1,0.1,0.2,0.2,0.3,0.3
		C416.4-113.9,416.4-113.8,416.4-113.7z"/>
</g>
<g>
	<path class="st3" d="M407.4,431.5c0.2,0,0.4,0.1,0.6,0.1c1.4,0.3,2.7,1.7,2.9,3.2c0.1,1,0,1.9-0.6,2.7c-0.7,1.1-1.7,1.7-3.1,1.8
		c-1.7,0.1-3.2-0.9-3.8-2.3c-0.6-1.3-0.4-3.1,0.6-4.1c0.6-0.7,1.3-1.1,2.2-1.3c0.1,0,0.3-0.1,0.5-0.1
		C406.9,431.5,407.1,431.5,407.4,431.5z"/>
	<path class="st3" d="M407.1,447.8c-1.3,0-2.6,0-3.9,0c-0.7,0-1.3-0.1-1.8-0.5c-0.6-0.4-1-1-1-1.8c-0.1-1.4,0-2.7,0.6-4
		c0.3-0.7,0.7-1.4,1.5-1.8c0.5-0.3,1-0.4,1.5-0.4c0.2,0,0.3,0.1,0.5,0.2c0.2,0.1,0.5,0.3,0.7,0.4c1.4,0.8,2.7,0.8,4.1,0
		c0.2-0.1,0.4-0.2,0.6-0.4c0.3-0.2,0.7-0.3,1.1-0.2c1.1,0.2,1.8,0.7,2.3,1.7c0.4,0.8,0.7,1.7,0.7,2.6c0,0.5,0.1,0.9,0.1,1.4
		c0,1.4-1,2.5-2.4,2.6c-0.2,0-0.3,0-0.5,0C409.7,447.8,408.4,447.8,407.1,447.8z"/>
</g>
<g>
	<path class="st3" d="M408.5-52.2c-0.5-0.1-1-0.4-1.3-0.9c-0.1-0.2-0.2-0.3-0.2-0.5c0-0.2-0.1-0.3-0.3-0.3c-0.8,0-1.5,0-2.3,0
		c-2,0-4,0-6.1,0c-0.2,0-0.3,0-0.3,0.3c-0.2,0.7-0.6,1.1-1.3,1.3c-0.1,0-0.1,0-0.2,0.1c-0.2,0-0.3,0-0.5,0c0,0,0,0,0,0
		c-0.6-0.1-1-0.5-1.3-1c0-0.1-0.1-0.1-0.2-0.1c-0.2,0-0.5,0-0.8,0c0-0.2,0-0.3,0-0.4c-0.1,0-0.1,0-0.1,0c0,0-0.1,0-0.1,0
		c0-1.1-0.1-2.2,0.4-3.2c0.1-0.1,0.1-0.3,0.2-0.4c0.6-0.7,1.2-1.3,1.8-2c0.3-0.3,0.6-0.5,1-0.5c2.3-0.2,4.6-0.2,7,0
		c0.7,0.1,1.4,0.3,1.9,0.8c0.5,0.4,1,0.9,1.5,1.3c0.1,0.1,0.2,0.2,0.4,0.2c1.2,0.3,2.4,0.6,3.6,0.9c0.4,0.1,0.6,0.2,0.7,0.6
		c0.1,0.2,0.1,0.5,0.3,0.7c0.3,0.2,0.3,0.5,0.2,0.8c0,0.2-0.1,0.3-0.1,0.5c0,0.2,0,0.5-0.4,0.4c0,0.2,0,0.3,0,0.4
		c-0.5,0-0.9,0-1.3,0c-0.1,0-0.2,0-0.3,0.2c-0.1,0.2-0.2,0.4-0.4,0.5c-0.3,0.2-0.6,0.3-0.9,0.5C408.8-52.2,408.6-52.2,408.5-52.2z
		 M397.1-59.3c-0.1,0-0.1,0-0.2,0.1c-0.4,0.5-0.8,1-1.2,1.5c1.4,0,2.9,0,4.3,0c0-0.6,0-1.1,0-1.7C399-59.4,398-59.3,397.1-59.3z
		 M401.1-57.9c0,0.1,0,0.1,0,0.2c1.4,0,2.8,0,4.3,0c-0.1-0.1-0.2-0.2-0.3-0.3c-0.3-0.3-0.5-0.7-0.8-1c-0.1-0.1-0.1-0.1-0.2-0.2
		c-1-0.1-2-0.1-3-0.2C401.1-58.9,401.1-58.4,401.1-57.9z M395.6-54c0,0.3,0.3,0.6,0.6,0.6c0.3,0,0.7-0.3,0.6-0.7
		c0-0.3-0.3-0.6-0.6-0.6C395.9-54.6,395.6-54.3,395.6-54z M408.7-53.3c0.3,0,0.7-0.3,0.6-0.7c0-0.3-0.3-0.6-0.6-0.6
		c-0.3,0-0.7,0.3-0.6,0.7C408-53.6,408.3-53.3,408.7-53.3z"/>
	<path class="st3" d="M420.3-57.9c-0.5,0-1.1,0-1.6,0c-0.3,0-0.5,0-0.8,0c0,0,0,0.1,0,0.1c0.1,0,0.1,0.1,0.2,0.1c0.3,0,0.7,0,1,0
		c0.3,0,0.6,0,0.8,0c0,0.3,0,0.6,0,0.9c-0.6,0-1.2,0-1.8,0c-0.2,0-0.3,0.1-0.3,0.2c-0.4,0.9-1,1.4-2,1.4c-0.9,0.1-1.6-0.3-2-1.1
		c-0.2-0.5-0.5-0.6-1-0.6c0,0-0.1,0-0.1,0c-0.2,0-0.3,0-0.3-0.2c0-0.2-0.1-0.4-0.4-0.4c0,0-0.1-0.1-0.2-0.2c0.5,0,1,0,1.4,0
		c0.2,0,0.2,0,0.2-0.2c-0.5,0-1,0-1.6,0c0-2.8,0-5.6,0-8.4c0,0,0.1,0,0.1,0c1.6,0,3.1,0,4.7,0c0.1,0,0.2,0.1,0.2,0.1
		c1,1.2,1.9,2.4,2.8,3.7c0.1,0.1,0.1,0.2,0.1,0.4c0,0.6,0,1.2,0,1.8c0,0.4,0.1,0.7,0.5,1C420.3-58.9,420.3-58.4,420.3-57.9z
		 M412.8-62.7c0,0.1,0,0.1,0,0.2c1.9,0,3.7,0,5.6,0c0-0.1,0-0.1-0.1-0.2c-0.6-0.9-1.2-1.7-1.8-2.6c-0.1-0.1-0.2-0.1-0.2-0.1
		c-1.1,0-2.2,0-3.3,0c0,0-0.1,0-0.1,0C412.8-64.5,412.8-63.6,412.8-62.7z M416.7-57.4c0-0.6-0.5-1.1-1.1-1.1c-0.6,0-1.1,0.5-1.1,1.1
		c0,0.6,0.5,1.1,1.1,1.1C416.3-56.3,416.7-56.8,416.7-57.4z"/>
	<path class="st3" d="M411.6-57.5c0-0.1,0-0.2,0-0.3c0-2.7,0-5.4,0-8.2c0-0.1,0.1-0.3-0.2-0.4c0,0,0-0.1,0-0.2c0-0.6,0-1.3,0-1.9
		c-5.8,0-11.6,0-17.4,0c0,3.2,0,6.3,0,9.5c0.1-0.1,0.1-0.1,0.2-0.1c0.3-0.4,0.6-0.7,0.9-1.1c0.4-0.4,0.8-0.7,1.4-0.7
		c2.3-0.2,4.7-0.2,7,0c1.1,0.1,2.1,0.5,2.9,1.3c0.2,0.2,0.4,0.3,0.6,0.5c0.4,0.4,0.9,0.6,1.4,0.7C409.4-58.1,410.5-57.8,411.6-57.5z
		"/>
</g>
<path class="st3" d="M402.6-15c2.4,0,4.7,0,7.1,0c0.1,0,0.3,0.1,0.4,0.1c0.5,0.3,0.8,0.7,0.8,1.3c0,2.8,0,5.7,0,8.5
	c0,0.1,0,0.1,0,0.2c0.1,0,0.1,0,0.2,0c0.8,0,1.2,0.4,1.2,1.2c0,0.2,0,0.4,0,0.6c0,0.2,0.1,0.3,0.3,0.3c0.2,0,0.3-0.1,0.3-0.2
	c0-0.1,0-0.1,0-0.2c0-1.8,0-3.6,0-5.4c0-0.1,0-0.1,0-0.2c-0.1,0-0.1,0-0.2,0c-0.6-0.1-1.2-0.6-1.2-1.2c0-0.4,0-0.7,0-1.1
	c0-0.1,0.1-0.2,0.2-0.3c0.3-0.3,0.5-0.5,0.8-0.8c0.1-0.1,0.2-0.1,0.3-0.2c-0.3-0.3-0.6-0.6-0.9-0.9c-0.1-0.1-0.2-0.2-0.3-0.3
	c-0.1-0.1-0.1-0.3,0-0.4c0.1-0.1,0.3-0.1,0.4,0c0.1,0,0.1,0.1,0.2,0.1c0.4,0.4,0.8,0.8,1.1,1.1c0.2,0.2,0.2,0.3,0.2,0.5
	c0,3.1,0,6.1,0,9.2c0,0.1,0,0.2,0,0.3c0,0.5-0.5,0.9-1,0.9c-0.5,0-1-0.4-1-0.9c0-0.3,0-0.5,0-0.8c0-0.3-0.1-0.4-0.4-0.4
	c-0.1,0-0.2,0-0.3,0c0,0.9,0,1.8,0,2.7c0,0,0.1,0,0.1,0c0.6,0,1.2,0.6,1.2,1.2c0,0.3,0,0.7,0,1c0,0.4-0.1,0.5-0.5,0.5
	c-3.7,0-7.5,0-11.2,0c0,0-0.1,0-0.1,0c-0.2,0-0.3-0.1-0.4-0.3c0-0.4,0-0.8,0-1.1c0-0.4,0.2-0.7,0.5-0.9c0.2-0.2,0.5-0.3,0.9-0.3
	c0-0.1,0-0.2,0-0.2c0-3.9,0-7.9,0-11.8c0-0.4,0.1-0.8,0.4-1.1C402-14.8,402.3-14.9,402.6-15z M406.1-8.9c1,0,2,0,3,0
	c0.3,0,0.4-0.1,0.4-0.4c0-1.3,0-2.6,0-3.9c0-0.3-0.1-0.4-0.4-0.4c-2,0-3.9,0-5.9,0c-0.3,0-0.4,0.1-0.4,0.4c0,1.3,0,2.6,0,3.9
	c0,0.3,0.1,0.4,0.4,0.4C404.2-8.9,405.2-8.9,406.1-8.9z"/>
<path class="st3" d="M415.3,492.2c0,0.6,0,1.2,0,1.8c0,0,0,0,0,0.1c-0.1,0.5-0.4,0.7-0.9,0.8c-0.4,0.1-0.7,0.1-1.1,0.1
	c-0.1,0-0.2,0.1-0.2,0.2c-0.1,0.2-0.2,0.4-0.3,0.6c-0.1,0.1-0.1,0.2,0,0.3c0.2,0.3,0.4,0.6,0.7,0.9c0.4,0.5,0.3,1-0.1,1.4
	c-0.3,0.3-0.7,0.7-1,1c-0.4,0.4-0.9,0.4-1.4,0.1c-0.3-0.2-0.6-0.5-0.9-0.7c-0.1-0.1-0.1-0.1-0.2,0c-0.2,0.1-0.5,0.2-0.7,0.3
	c-0.1,0-0.1,0.1-0.1,0.2c0,0.3-0.1,0.6-0.1,0.9c0,0.3-0.1,0.5-0.2,0.8c-0.2,0.2-0.4,0.4-0.7,0.4c-0.6,0-1.2,0-1.8,0c0,0,0,0-0.1,0
	c-0.5-0.1-0.7-0.4-0.8-0.9c-0.1-0.4-0.1-0.7-0.1-1.1c0-0.1-0.1-0.2-0.2-0.2c-0.2-0.1-0.5-0.2-0.7-0.3c-0.1,0-0.1,0-0.2,0
	c-0.3,0.2-0.6,0.5-0.9,0.7c-0.5,0.4-1,0.3-1.4-0.1c-0.3-0.3-0.7-0.7-1-1c-0.4-0.4-0.4-0.9-0.1-1.4c0.2-0.3,0.5-0.6,0.7-0.9
	c0,0,0-0.1,0-0.2c-0.1-0.2-0.2-0.5-0.3-0.7c0-0.1-0.1-0.1-0.2-0.1c-0.4-0.1-0.7-0.1-1.1-0.1c-0.6-0.1-1-0.5-1-1.1c0-0.5,0-1,0-1.5
	c0-0.5,0.3-0.9,0.8-1c0.4-0.1,0.8-0.1,1.2-0.2c0.1,0,0.2-0.1,0.2-0.2c0.1-0.2,0.2-0.4,0.3-0.6c0.1-0.1,0-0.2,0-0.3
	c-0.2-0.3-0.4-0.5-0.6-0.8c-0.4-0.5-0.3-1,0.1-1.4c0.3-0.3,0.7-0.7,1-1c0.4-0.4,0.9-0.5,1.4-0.1c0.3,0.2,0.6,0.5,0.9,0.7
	c0,0,0.1,0,0.2,0c0.3-0.1,0.5-0.2,0.7-0.3c0.1,0,0.1-0.1,0.1-0.2c0.1-0.4,0.1-0.7,0.1-1.1c0.1-0.6,0.5-1,1.1-1c0.5,0,1,0,1.5,0
	c0.5,0,0.9,0.3,1,0.8c0.1,0.4,0.1,0.8,0.2,1.2c0,0.1,0.1,0.2,0.2,0.2c0.2,0.1,0.5,0.2,0.7,0.3c0.1,0,0.1,0,0.2,0
	c0.3-0.2,0.6-0.5,0.9-0.7c0.5-0.4,1-0.3,1.4,0.1c0.3,0.3,0.7,0.7,1,1c0.4,0.4,0.4,0.9,0.1,1.4c-0.2,0.3-0.5,0.6-0.7,0.9
	c0,0,0,0.1,0,0.2c0.1,0.2,0.2,0.5,0.3,0.7c0,0.1,0.1,0.1,0.2,0.1c0.4,0.1,0.7,0.1,1.1,0.1c0.3,0,0.6,0.2,0.8,0.4
	C415.2,492,415.2,492.1,415.3,492.2z M407.1,496.6c1.8,0.1,3.4-1.4,3.5-3.3c0.1-1.8-1.4-3.4-3.3-3.5c-1.8-0.1-3.4,1.4-3.5,3.3
	C403.7,494.9,405.2,496.5,407.1,496.6z"/>
<g>
	<path class="st3" d="M396.6,539.7c0,0,0-0.1,0.1-0.1c0.2-0.6,0.7-1,1.4-1c0.9,0,1.8,0,2.7,0c5.2,0,10.4,0,15.6,0
		c0.9,0,1.5,0.6,1.5,1.4c0,0.7-0.6,1.3-1.3,1.4c-0.1,0-0.2,0-0.3,0c-5.9,0-11.9,0-17.8,0c-0.9,0-1.5-0.3-1.8-1.2
		C396.6,540.1,396.6,539.9,396.6,539.7z"/>
	<path class="st3" d="M397.1,546.5c0,0,0-0.1,0.1-0.1c0.2-0.6,0.7-1,1.3-1c0.9,0,1.7,0,2.6,0c5,0,9.9,0,14.9,0
		c0.8,0,1.4,0.6,1.4,1.4c0,0.7-0.6,1.3-1.3,1.3c-0.1,0-0.2,0-0.3,0c-5.7,0-11.3,0-17,0c-0.8,0-1.4-0.3-1.7-1.1
		C397.1,546.8,397.1,546.6,397.1,546.5z"/>
	<path class="st3" d="M397.1,553.2c0,0,0-0.1,0.1-0.1c0.2-0.6,0.7-1,1.3-1c0.8,0,1.7,0,2.5,0c5,0,10,0,15,0c0.7,0,1.2,0.4,1.4,1
		c0.2,0.7-0.2,1.4-0.9,1.6c-0.1,0-0.1,0-0.2,0.1c-6,0-12,0-18,0c-0.3-0.1-0.7-0.2-0.9-0.6c-0.1-0.2-0.2-0.4-0.3-0.5
		C397.1,553.6,397.1,553.4,397.1,553.2z"/>
</g>
<g>
	<g>
		<g>
			<path class="st4" d="M475.2-189.8v20.2h-5.4v-20.2H475.2z"/>
			<path class="st4" d="M503.1-170.1c-0.8,0.4-2.7,0.8-5.1,0.8c-7.6,0-10.9-4.7-10.9-10.1c0-7.1,5.2-10.8,11.3-10.8
				c2.3,0,4.2,0.4,5.1,0.9l-1.1,4.3c-0.9-0.4-2.1-0.7-3.7-0.7c-3.1,0-5.8,1.8-5.8,6c0,3.7,2.2,6,5.9,6c1.3,0,2.8-0.3,3.6-0.6
				L503.1-170.1z"/>
			<path class="st4" d="M527.7-177.8h-7.3v3.7h8.1v4.4H515v-20.2h13.1v4.4h-7.7v3.3h7.3V-177.8z"/>
		</g>
	</g>
	<g>
		<g>
			<path class="st5" d="M467.9-161.7l-0.4,1.3h-0.9l1.5-4.7h1.1l1.5,4.7h-0.9l-0.4-1.3H467.9z M469.3-162.3l-0.4-1.2
				c-0.1-0.3-0.2-0.6-0.2-0.9h0c-0.1,0.3-0.1,0.6-0.2,0.9l-0.4,1.2H469.3z"/>
			<path class="st5" d="M471.4-162.7c0-0.5,0-0.8,0-1.1h0.7l0,0.6h0c0.2-0.5,0.6-0.7,0.9-0.7c0.1,0,0.1,0,0.2,0v0.8
				c-0.1,0-0.1,0-0.3,0c-0.4,0-0.7,0.3-0.8,0.7c0,0.1,0,0.2,0,0.3v1.8h-0.9V-162.7z"/>
			<path class="st5" d="M475.8-160.4l-0.1-0.4h0c-0.2,0.3-0.6,0.5-1,0.5c-0.7,0-1.1-0.5-1.1-1c0-0.9,0.8-1.3,2-1.3v-0.1
				c0-0.2-0.1-0.6-0.7-0.6c-0.3,0-0.7,0.1-0.9,0.3l-0.2-0.6c0.3-0.2,0.7-0.3,1.2-0.3c1.1,0,1.4,0.7,1.4,1.4v1.2c0,0.3,0,0.6,0.1,0.8
				H475.8z M475.7-162c-0.6,0-1.2,0.1-1.2,0.6c0,0.3,0.2,0.5,0.5,0.5c0.3,0,0.6-0.2,0.7-0.5c0-0.1,0-0.1,0-0.2V-162z"/>
			<path class="st5" d="M479.9-160.5c-0.2,0.1-0.5,0.2-1,0.2c-1.1,0-1.8-0.7-1.8-1.7c0-1,0.7-1.8,1.9-1.8c0.3,0,0.6,0.1,0.8,0.2
				l-0.2,0.6c-0.1-0.1-0.3-0.1-0.7-0.1c-0.7,0-1,0.5-1,1.1c0,0.7,0.5,1.1,1,1.1c0.3,0,0.5-0.1,0.7-0.1L479.9-160.5z M479.2-160.4
				L479-160c0.3,0,0.5,0.2,0.5,0.5c0,0.4-0.4,0.6-0.8,0.6c-0.2,0-0.4-0.1-0.5-0.1l0.1-0.4c0.1,0.1,0.3,0.1,0.4,0.1
				c0.1,0,0.3-0.1,0.3-0.2c0-0.2-0.2-0.2-0.5-0.3l0.3-0.6H479.2z"/>
			<path class="st5" d="M483.1-160.4v-2l-1.5-2.8h1l0.6,1.2c0.2,0.3,0.3,0.6,0.4,0.9h0c0.1-0.3,0.3-0.6,0.4-0.9l0.6-1.2h1l-1.6,2.7
				v2H483.1z"/>
			<path class="st5" d="M489.3-162.1c0,1.3-0.9,1.8-1.8,1.8c-1,0-1.7-0.7-1.7-1.8c0-1.1,0.7-1.8,1.8-1.8
				C488.6-163.8,489.3-163.1,489.3-162.1z M486.4-164.7c0-0.2,0.2-0.4,0.4-0.4c0.2,0,0.4,0.2,0.4,0.4c0,0.2-0.2,0.4-0.4,0.4
				C486.6-164.3,486.4-164.5,486.4-164.7z M486.7-162.1c0,0.7,0.3,1.2,0.8,1.2c0.5,0,0.8-0.5,0.8-1.2c0-0.5-0.2-1.1-0.8-1.1
				C487-163.2,486.7-162.6,486.7-162.1z M487.8-164.7c0-0.2,0.2-0.4,0.4-0.4c0.2,0,0.4,0.2,0.4,0.4c0,0.2-0.2,0.4-0.4,0.4
				C488-164.3,487.8-164.5,487.8-164.7z"/>
			<path class="st5" d="M490-162.7c0-0.4,0-0.7,0-1h0.8l0,0.5h0c0.2-0.3,0.5-0.6,1.1-0.6c0.6,0,1.2,0.4,1.2,1.5v2h-0.9v-1.9
				c0-0.5-0.2-0.9-0.7-0.9c-0.3,0-0.6,0.2-0.7,0.5c0,0.1,0,0.2,0,0.3v2H490V-162.7z"/>
			<path class="st5" d="M494.6-161.8c0,0.6,0.5,0.9,1.1,0.9c0.4,0,0.7-0.1,0.9-0.2l0.1,0.6c-0.3,0.1-0.7,0.2-1.2,0.2
				c-1.1,0-1.8-0.7-1.8-1.7c0-0.9,0.6-1.8,1.7-1.8c1.1,0,1.5,0.9,1.5,1.7c0,0.2,0,0.3,0,0.4H494.6z M496.1-162.4
				c0-0.3-0.1-0.8-0.7-0.8c-0.5,0-0.8,0.5-0.8,0.8H496.1z"/>
			<path class="st5" d="M498.6-164.7v1h0.8v0.6h-0.8v1.5c0,0.4,0.1,0.6,0.4,0.6c0.1,0,0.3,0,0.3,0l0,0.7c-0.1,0-0.4,0.1-0.6,0.1
				c-0.3,0-0.6-0.1-0.7-0.3c-0.2-0.2-0.3-0.5-0.3-1v-1.6h-0.5v-0.6h0.5v-0.8L498.6-164.7z"/>
			<path class="st5" d="M501-164.7c0,0.3-0.2,0.5-0.5,0.5c-0.3,0-0.5-0.2-0.5-0.5c0-0.3,0.2-0.5,0.5-0.5
				C500.8-165.2,501-165,501-164.7z M500.1-160.4v-3.4h0.9v3.4H500.1z"/>
			<path class="st5" d="M501.9-162.7c0-0.4,0-0.7,0-1h0.7l0,0.5h0c0.2-0.3,0.5-0.6,1-0.6c0.5,0,0.8,0.3,0.9,0.6h0
				c0.1-0.2,0.3-0.3,0.4-0.4c0.2-0.1,0.4-0.2,0.7-0.2c0.6,0,1.1,0.4,1.1,1.5v2h-0.8v-1.9c0-0.6-0.2-0.9-0.6-0.9
				c-0.3,0-0.5,0.2-0.6,0.5c0,0.1,0,0.2,0,0.3v2H504v-2c0-0.5-0.2-0.8-0.6-0.8c-0.3,0-0.5,0.3-0.6,0.5c0,0.1,0,0.2,0,0.3v2h-0.8
				V-162.7z"/>
			<path class="st5" d="M509.3-161.3c0.3,0.2,0.7,0.3,1.1,0.3c0.6,0,0.9-0.3,0.9-0.6c0-0.4-0.2-0.6-0.8-0.8
				c-0.8-0.3-1.3-0.7-1.3-1.4c0-0.8,0.6-1.4,1.7-1.4c0.5,0,0.9,0.1,1.1,0.2l-0.2,0.7c-0.2-0.1-0.5-0.2-0.9-0.2
				c-0.5,0-0.8,0.3-0.8,0.6c0,0.4,0.3,0.5,0.9,0.8c0.8,0.3,1.2,0.7,1.2,1.4c0,0.8-0.6,1.4-1.8,1.4c-0.5,0-1-0.1-1.3-0.3L509.3-161.3
				z"/>
			<path class="st5" d="M513.8-164.7c0,0.3-0.2,0.5-0.5,0.5c-0.3,0-0.5-0.2-0.5-0.5c0-0.3,0.2-0.5,0.5-0.5
				C513.6-165.2,513.8-165,513.8-164.7z M512.9-160.4v-3.4h0.9v3.4H512.9z"/>
			<path class="st5" d="M514.6-161.1c0.2,0.1,0.6,0.2,0.9,0.2c0.4,0,0.5-0.2,0.5-0.4c0-0.2-0.1-0.3-0.6-0.5c-0.7-0.2-0.9-0.6-0.9-1
				c0-0.6,0.5-1.1,1.3-1.1c0.4,0,0.7,0.1,0.9,0.2l-0.2,0.6c-0.1-0.1-0.4-0.2-0.7-0.2c-0.3,0-0.5,0.2-0.5,0.4c0,0.2,0.2,0.3,0.6,0.5
				c0.6,0.2,0.9,0.5,0.9,1c0,0.6-0.5,1.1-1.4,1.1c-0.4,0-0.8-0.1-1-0.2L514.6-161.1z"/>
			<path class="st5" d="M518.6-164.7v1h0.8v0.6h-0.8v1.5c0,0.4,0.1,0.6,0.4,0.6c0.1,0,0.3,0,0.3,0l0,0.7c-0.1,0-0.4,0.1-0.6,0.1
				c-0.3,0-0.6-0.1-0.7-0.3c-0.2-0.2-0.3-0.5-0.3-1v-1.6h-0.5v-0.6h0.5v-0.8L518.6-164.7z"/>
			<path class="st5" d="M520.7-161.8c0,0.6,0.5,0.9,1.1,0.9c0.4,0,0.7-0.1,0.9-0.2l0.1,0.6c-0.3,0.1-0.7,0.2-1.2,0.2
				c-1.1,0-1.8-0.7-1.8-1.7c0-0.9,0.6-1.8,1.7-1.8c1.1,0,1.5,0.9,1.5,1.7c0,0.2,0,0.3,0,0.4H520.7z M522.2-162.4
				c0-0.3-0.1-0.8-0.7-0.8c-0.5,0-0.8,0.5-0.8,0.8H522.2z"/>
			<path class="st5" d="M523.7-162.7c0-0.4,0-0.7,0-1h0.7l0,0.5h0c0.2-0.3,0.5-0.6,1-0.6c0.5,0,0.8,0.3,0.9,0.6h0
				c0.1-0.2,0.3-0.3,0.4-0.4c0.2-0.1,0.4-0.2,0.7-0.2c0.6,0,1.1,0.4,1.1,1.5v2h-0.8v-1.9c0-0.6-0.2-0.9-0.6-0.9
				c-0.3,0-0.5,0.2-0.6,0.5c0,0.1,0,0.2,0,0.3v2h-0.8v-2c0-0.5-0.2-0.8-0.6-0.8c-0.3,0-0.5,0.3-0.6,0.5c0,0.1,0,0.2,0,0.3v2h-0.8
				V-162.7z"/>
			<path class="st5" d="M530.5-164.7c0,0.3-0.2,0.5-0.5,0.5c-0.3,0-0.5-0.2-0.5-0.5c0-0.3,0.2-0.5,0.5-0.5
				C530.3-165.2,530.5-165,530.5-164.7z M529.6-160.4v-3.4h0.9v3.4H529.6z"/>
		</g>
	</g>
</g>
<g>
	<polygon class="st5" points="434.7,-189 434.7,-179.7 444.2,-184.3 453.7,-189 444.2,-193.6 434.7,-198.2 	"/>
	<polygon class="st4" points="434.7,-189 434.7,-179.7 425.2,-184.3 415.8,-189 425.2,-193.6 434.7,-198.2 	"/>
	<polygon class="st5" points="434.7,-154.9 415.8,-164.1 415.8,-189 434.7,-179.7 	"/>
	<polygon class="st4" points="434.7,-154.9 453.7,-164.1 453.7,-189 434.7,-179.7 	"/>
</g>
<path class="st3" d="M553.5-4.6h-3.6c-0.3,0-0.4,0.3-0.2,0.5l1.7,1.8l1.9,2.1c0.1,0.1,0.3,0.1,0.4,0l1.9-2.1l1.7-1.8
	c0.2-0.2,0-0.5-0.2-0.5H553.5z"/>
<path class="st3" d="M553.5-58.5h-3.6c-0.3,0-0.4,0.3-0.2,0.5l1.7,1.8l1.9,2.1c0.1,0.1,0.3,0.1,0.4,0l1.9-2.1l1.7-1.8
	c0.2-0.2,0-0.5-0.2-0.5H553.5z"/>
<rect x="633" y="-216.3" class="st0" width="194.6" height="829.7"/>
<g>
	<text transform="matrix(1 0 0 1 686.8922 -105.7538)" class="st2" style="font-family:'HelveticaNeue-Bold'; font-size:13px;">ANA SAYFA</text>
</g>
<line class="st1" x1="633" y1="-138.5" x2="827.7" y2="-138.5"/>
<line class="st1" x1="633" y1="-85" x2="827.7" y2="-85"/>
<line class="st1" x1="633" y1="-85" x2="827.7" y2="-85"/>
<line class="st1" x1="633" y1="159" x2="827.7" y2="159"/>
<text transform="matrix(1 0 0 1 686.8922 194.8373)" class="st3" style="font-family:'HelveticaNeue-Bold'; font-size:13px;">AKARYAKIT</text>
<line class="st1" x1="633" y1="159" x2="827.7" y2="159"/>
<line class="st1" x1="633" y1="215.6" x2="827.7" y2="215.6"/>
<text transform="matrix(1 0 0 1 686.8922 248.3671)" class="st3" style="font-family:'HelveticaNeue-Bold'; font-size:13px;">RAPORLAR</text>
<line class="st1" x1="633" y1="215.6" x2="827.7" y2="215.6"/>
<line class="st1" x1="633" y1="269.2" x2="827.7" y2="269.2"/>
<line class="st1" x1="633" y1="269.2" x2="827.7" y2="269.2"/>
<line class="st1" x1="633" y1="415" x2="827.7" y2="415"/>
<text transform="matrix(1 0 0 1 686.8922 447.771)" class="st3" style="font-family:'HelveticaNeue-Bold'; font-size:13px;">KULLANICI PANELİ</text>
<line class="st1" x1="633" y1="415" x2="827.7" y2="415"/>
<line class="st1" x1="633" y1="468.6" x2="827.7" y2="468.6"/>
<text transform="matrix(1 0 0 1 686.8922 501.3009)" class="st3" style="font-family:'HelveticaNeue-Bold'; font-size:13px;">AYARLAR</text>
<line class="st1" x1="633" y1="468.6" x2="827.7" y2="468.6"/>
<line class="st1" x1="633" y1="522.1" x2="827.7" y2="522.1"/>
<text transform="matrix(1 0 0 1 686.8922 554.8306)" class="st3" style="font-family:'HelveticaNeue-Bold'; font-size:13px;">MENÜYÜ DARALT</text>
<line class="st1" x1="633" y1="522.1" x2="827.7" y2="522.1"/>
<line class="st1" x1="633" y1="575.6" x2="827.7" y2="575.6"/>
<g>
	<path class="st2" d="M661.2-105.8c-1.6,0-3.1,0-4.7,0c0-0.1,0-0.2,0-0.3c0-1.4,0-2.9,0-4.3c0-0.1,0-0.2,0-0.2c-1,0-2,0-3.1,0
		c0,0.1,0,0.2,0,0.3c0,1.3,0,2.5,0,3.8c0,0.3,0,0.5,0,0.8c-1.6,0-3.1,0-4.7,0c-0.5-0.2-0.7-0.4-0.7-1c0-1.9,0-3.8,0-5.7
		c0-0.1,0-0.2,0.1-0.3c1.8-1.5,3.5-3.1,5.3-4.6c0.5-0.4,1-0.8,1.5-1.3c0.1,0.1,0.1,0.1,0.2,0.1c2.2,1.9,4.4,3.8,6.6,5.7
		c0.1,0.1,0.1,0.2,0.1,0.3c0,1.9,0,3.8,0,5.7C661.9-106.2,661.7-106,661.2-105.8z"/>
	<path class="st2" d="M664.6-113.7c-0.2,0.3-0.5,0.6-0.7,0.9c-0.2,0.3-0.4,0.3-0.7,0.1c-2.7-2.3-5.3-4.7-8-7
		c-0.1-0.1-0.1-0.1-0.2-0.2c-0.3,0.3-0.6,0.5-0.9,0.8c-2.4,2.1-4.8,4.3-7.3,6.4c-0.3,0.2-0.5,0.2-0.7-0.1c-0.2-0.2-0.4-0.5-0.6-0.7
		c-0.2-0.3-0.2-0.5,0.1-0.7c2.1-1.9,4.2-3.7,6.4-5.6c0.7-0.6,1.4-1.2,2.1-1.8c0.5-0.4,1-0.5,1.6-0.2c0.2,0.1,0.3,0.2,0.4,0.3
		c0.9,0.8,1.7,1.5,2.6,2.3c0,0,0.1,0.1,0.2,0.1c0-0.1,0-0.2,0-0.2c0-0.7,0-1.4,0-2.1c0-0.4,0.1-0.5,0.5-0.5c0.7,0,1.4,0,2,0
		c0.4,0,0.5,0.1,0.5,0.5c0,1.6,0,3.2,0,4.8c0,0.1,0,0.2,0.1,0.3c0.8,0.7,1.6,1.4,2.3,2.1c0.1,0.1,0.2,0.2,0.3,0.3
		C664.6-113.9,664.6-113.8,664.6-113.7z"/>
</g>
<g>
	<path class="st3" d="M655.6,431.5c0.2,0,0.4,0.1,0.6,0.1c1.4,0.3,2.7,1.7,2.9,3.2c0.1,1,0,1.9-0.6,2.7c-0.7,1.1-1.7,1.7-3.1,1.8
		c-1.7,0.1-3.2-0.9-3.8-2.3c-0.6-1.3-0.4-3.1,0.6-4.1c0.6-0.7,1.3-1.1,2.2-1.3c0.1,0,0.3-0.1,0.5-0.1
		C655.1,431.5,655.3,431.5,655.6,431.5z"/>
	<path class="st3" d="M655.3,447.8c-1.3,0-2.6,0-3.9,0c-0.7,0-1.3-0.1-1.8-0.5c-0.6-0.4-1-1-1-1.8c-0.1-1.4,0-2.7,0.6-4
		c0.3-0.7,0.7-1.4,1.5-1.8c0.5-0.3,1-0.4,1.5-0.4c0.2,0,0.3,0.1,0.5,0.2c0.2,0.1,0.5,0.3,0.7,0.4c1.4,0.8,2.7,0.8,4.1,0
		c0.2-0.1,0.4-0.2,0.6-0.4c0.3-0.2,0.7-0.3,1.1-0.2c1.1,0.2,1.8,0.7,2.3,1.7c0.4,0.8,0.7,1.7,0.7,2.6c0,0.5,0.1,0.9,0.1,1.4
		c0,1.4-1,2.5-2.4,2.6c-0.2,0-0.3,0-0.5,0C657.8,447.8,656.6,447.8,655.3,447.8z"/>
</g>
<path class="st3" d="M651.2,175.5c2.9,0,5.8,0,8.6,0c0.2,0.1,0.4,0.1,0.5,0.2c0.6,0.3,0.9,0.9,0.9,1.6c0,3.5,0,6.9,0,10.4
	c0,0.1,0,0.2,0,0.2c0.1,0,0.2,0,0.2,0c0.9,0,1.4,0.5,1.4,1.4c0,0.2,0,0.5,0,0.7c0,0.2,0.2,0.3,0.4,0.4c0.2,0,0.4-0.1,0.4-0.3
	c0-0.1,0-0.2,0-0.3c0-2.2,0-4.4,0-6.6c0-0.1,0-0.1,0-0.2c-0.1,0-0.1,0-0.2,0c-0.8-0.1-1.4-0.7-1.4-1.5c0-0.4,0-0.9,0-1.3
	c0-0.1,0.1-0.3,0.2-0.4c0.3-0.3,0.6-0.7,1-1c0.1-0.1,0.2-0.2,0.3-0.3c-0.4-0.4-0.7-0.7-1.1-1.1c-0.1-0.1-0.2-0.2-0.4-0.4
	c-0.1-0.1-0.1-0.4,0.1-0.5c0.1-0.1,0.3-0.2,0.5-0.1c0.1,0,0.1,0.1,0.2,0.2c0.5,0.5,0.9,0.9,1.4,1.4c0.2,0.2,0.3,0.4,0.3,0.6
	c0,3.7,0,7.4,0,11.2c0,0.1,0,0.2,0,0.3c0,0.6-0.6,1.1-1.2,1.1c-0.6,0-1.2-0.5-1.2-1.1c0-0.3,0-0.6,0-0.9c0-0.3-0.2-0.5-0.5-0.5
	c-0.1,0-0.2,0-0.3,0c0,1.1,0,2.2,0,3.3c0,0,0.1,0,0.1,0c0.8,0,1.5,0.7,1.5,1.5c0,0.4,0,0.8,0,1.2c0,0.5-0.1,0.6-0.6,0.6
	c-4.6,0-9.1,0-13.7,0c-0.1,0-0.1,0-0.2,0c-0.3,0-0.4-0.2-0.4-0.4c0-0.5,0-0.9,0-1.4c0-0.4,0.2-0.8,0.6-1.1c0.3-0.3,0.7-0.4,1.1-0.4
	c0-0.1,0-0.2,0-0.3c0-4.8,0-9.6,0-14.4c0-0.5,0.1-0.9,0.5-1.3C650.4,175.7,650.8,175.6,651.2,175.5z M655.5,182.9c1.2,0,2.4,0,3.6,0
	c0.4,0,0.5-0.1,0.5-0.5c0-1.6,0-3.2,0-4.8c0-0.4-0.1-0.5-0.5-0.5c-2.4,0-4.8,0-7.2,0c-0.4,0-0.5,0.1-0.5,0.5c0,1.6,0,3.1,0,4.7
	c0,0.4,0.1,0.5,0.5,0.5C653.1,182.9,654.3,182.9,655.5,182.9z"/>
<g>
	<path class="st3" d="M663.1,235.4c-0.1,0.3-0.1,0.5-0.2,0.8c-0.5,1.2-1.9,2-3.2,1.7c-0.2,0-0.4,0-0.5,0.2c-2.1,2.1-4.2,4.2-6.3,6.3
		c-0.2,0.2-0.2,0.3-0.2,0.5c0.3,1.6-0.7,3.1-2.3,3.4c-1.6,0.3-3.1-0.7-3.4-2.2c-0.4-1.8,1-3.5,2.8-3.5c0.2,0,0.4,0,0.6,0.1
		c0.2,0,0.4,0,0.5-0.2c2.1-2.1,4.2-4.2,6.4-6.4c0.2-0.2,0.2-0.3,0.2-0.5c-0.2-1.1,0.1-2.1,1-2.8c0.4-0.3,0.9-0.5,1.4-0.6
		c0,0,0.1,0,0.1,0c0.1,0,0.3,0,0.4,0c0,0-0.1,0.1-0.1,0.1c-0.4,0.4-0.9,0.9-1.3,1.3c-0.1,0.1-0.2,0.3-0.1,0.5c0.2,0.5,0.3,1,0.5,1.5
		c0.1,0.2,0.1,0.3,0.3,0.3c0.5,0.2,1,0.3,1.5,0.5c0.2,0.1,0.3,0,0.5-0.1c0.4-0.4,0.9-0.9,1.3-1.3c0,0,0.1-0.1,0.1-0.1
		C663.1,235,663.1,235.2,663.1,235.4z M658,236.9c-2.1,2.1-4.2,4.2-6.4,6.4c0.1,0.1,0.2,0.3,0.4,0.4c2.1-2.1,4.2-4.2,6.4-6.4
		C658.3,237.1,658.1,237,658,236.9z M649.8,246.6c0.2,0,0.4,0,0.6,0c0.1,0,0.1,0,0.2-0.1c0.2-0.3,0.4-0.6,0.6-1c0,0,0-0.1,0-0.2
		c-0.2-0.3-0.4-0.7-0.6-1c0,0-0.1-0.1-0.1-0.1c-0.4,0-0.8,0-1.2,0c-0.1,0-0.1,0-0.2,0.1c-0.2,0.3-0.4,0.6-0.6,1c0,0,0,0.1,0,0.2
		c0.2,0.3,0.4,0.7,0.6,1c0,0,0.1,0.1,0.1,0.1C649.4,246.6,649.6,246.6,649.8,246.6z"/>
	<path class="st3" d="M663.1,246.8c-0.1,0.4-0.2,0.7-0.5,1c-0.5,0.5-1.3,0.7-1.9,0.5c0.7-0.7,1.5-1.5,2.2-2.2c0,0.1,0.1,0.2,0.1,0.3
		C663.1,246.5,663.1,246.7,663.1,246.8z"/>
	<path class="st3" d="M657.7,240.4c0.1,0.1,0.3,0.3,0.4,0.4c-0.3,0.5-0.2,0.9,0.1,1.2c0.3,0.3,0.7,0.4,1.2,0.1
		c1.1,1.1,2.2,2.2,3.3,3.3c-0.8,0.8-1.6,1.6-2.5,2.5c0,0-0.1-0.1-0.1-0.1c-1-1-2.1-2.1-3.1-3.1c-0.1-0.1-0.1-0.1,0-0.2
		c0.2-0.4,0.2-0.8-0.1-1.1c-0.3-0.3-0.8-0.3-1.1-0.1c0,0-0.1,0-0.1,0.1c-0.1-0.2-0.3-0.3-0.4-0.4C656,242,656.8,241.2,657.7,240.4z
		 M661.3,246.1c-1-1-1.9-1.9-2.9-2.9c-0.1,0.1-0.2,0.2-0.4,0.3c1,1,1.9,1.9,2.9,2.9C661,246.4,661.2,246.2,661.3,246.1z"/>
	<path class="st3" d="M654,238.4c-0.3,0.3-0.5,0.5-0.8,0.8c0,0-0.1-0.1-0.1-0.1c-1.3-1.3-2.6-2.6-3.9-3.9c-0.1-0.1-0.2-0.2-0.4-0.2
		c-0.3-0.1-0.5-0.1-0.8-0.2c0,0-0.1,0-0.1-0.1c-0.3-0.6-0.6-1.1-0.9-1.6c0.3-0.3,0.6-0.6,0.9-0.9c0.5,0.3,1.1,0.6,1.6,0.9
		c0,0,0.1,0.1,0.1,0.2c0.1,0.3,0.1,0.5,0.2,0.8c0,0.1,0.1,0.3,0.2,0.3c1.3,1.3,2.6,2.6,3.9,3.9C654,238.4,654,238.4,654,238.4z"/>
</g>
<path class="st3" d="M663.5,492.2c0,0.6,0,1.2,0,1.8c0,0,0,0,0,0.1c-0.1,0.5-0.4,0.7-0.9,0.8c-0.4,0.1-0.7,0.1-1.1,0.1
	c-0.1,0-0.2,0.1-0.2,0.2c-0.1,0.2-0.2,0.4-0.3,0.6c-0.1,0.1-0.1,0.2,0,0.3c0.2,0.3,0.4,0.6,0.7,0.9c0.4,0.5,0.3,1-0.1,1.4
	c-0.3,0.3-0.7,0.7-1,1c-0.4,0.4-0.9,0.4-1.4,0.1c-0.3-0.2-0.6-0.5-0.9-0.7c-0.1-0.1-0.1-0.1-0.2,0c-0.2,0.1-0.5,0.2-0.7,0.3
	c-0.1,0-0.1,0.1-0.1,0.2c0,0.3-0.1,0.6-0.1,0.9c0,0.3-0.1,0.5-0.2,0.8c-0.2,0.2-0.4,0.4-0.7,0.4c-0.6,0-1.2,0-1.8,0c0,0,0,0-0.1,0
	c-0.5-0.1-0.7-0.4-0.8-0.9c-0.1-0.4-0.1-0.7-0.1-1.1c0-0.1-0.1-0.2-0.2-0.2c-0.2-0.1-0.5-0.2-0.7-0.3c-0.1,0-0.1,0-0.2,0
	c-0.3,0.2-0.6,0.5-0.9,0.7c-0.5,0.4-1,0.3-1.4-0.1c-0.3-0.3-0.7-0.7-1-1c-0.4-0.4-0.4-0.9-0.1-1.4c0.2-0.3,0.5-0.6,0.7-0.9
	c0,0,0-0.1,0-0.2c-0.1-0.2-0.2-0.5-0.3-0.7c0-0.1-0.1-0.1-0.2-0.1c-0.4-0.1-0.7-0.1-1.1-0.1c-0.6-0.1-1-0.5-1-1.1c0-0.5,0-1,0-1.5
	c0-0.5,0.3-0.9,0.8-1c0.4-0.1,0.8-0.1,1.2-0.2c0.1,0,0.2-0.1,0.2-0.2c0.1-0.2,0.2-0.4,0.3-0.6c0.1-0.1,0-0.2,0-0.3
	c-0.2-0.3-0.4-0.5-0.6-0.8c-0.4-0.5-0.3-1,0.1-1.4c0.3-0.3,0.7-0.7,1-1c0.4-0.4,0.9-0.5,1.4-0.1c0.3,0.2,0.6,0.5,0.9,0.7
	c0,0,0.1,0,0.2,0c0.3-0.1,0.5-0.2,0.7-0.3c0.1,0,0.1-0.1,0.1-0.2c0.1-0.4,0.1-0.7,0.1-1.1c0.1-0.6,0.5-1,1.1-1c0.5,0,1,0,1.5,0
	c0.5,0,0.9,0.3,1,0.8c0.1,0.4,0.1,0.8,0.2,1.2c0,0.1,0.1,0.2,0.2,0.2c0.2,0.1,0.5,0.2,0.7,0.3c0.1,0,0.1,0,0.2,0
	c0.3-0.2,0.6-0.5,0.9-0.7c0.5-0.4,1-0.3,1.4,0.1c0.3,0.3,0.7,0.7,1,1c0.4,0.4,0.4,0.9,0.1,1.4c-0.2,0.3-0.5,0.6-0.7,0.9
	c0,0,0,0.1,0,0.2c0.1,0.2,0.2,0.5,0.3,0.7c0,0.1,0.1,0.1,0.2,0.1c0.4,0.1,0.7,0.1,1.1,0.1c0.3,0,0.6,0.2,0.8,0.4
	C663.4,492,663.4,492.1,663.5,492.2z M655.3,496.6c1.8,0.1,3.4-1.4,3.5-3.3c0.1-1.8-1.4-3.4-3.3-3.5c-1.8-0.1-3.4,1.4-3.5,3.3
	C651.9,494.9,653.4,496.5,655.3,496.6z"/>
<g>
	<path class="st3" d="M644.8,539.7c0,0,0-0.1,0.1-0.1c0.2-0.6,0.7-1,1.4-1c0.9,0,1.8,0,2.7,0c5.2,0,10.4,0,15.6,0
		c0.9,0,1.5,0.6,1.5,1.4c0,0.7-0.6,1.3-1.3,1.4c-0.1,0-0.2,0-0.3,0c-5.9,0-11.9,0-17.8,0c-0.9,0-1.5-0.3-1.8-1.2
		C644.8,540.1,644.8,539.9,644.8,539.7z"/>
	<path class="st3" d="M645.3,546.5c0,0,0-0.1,0.1-0.1c0.2-0.6,0.7-1,1.3-1c0.9,0,1.7,0,2.6,0c5,0,9.9,0,14.9,0
		c0.8,0,1.4,0.6,1.4,1.4c0,0.7-0.6,1.3-1.3,1.3c-0.1,0-0.2,0-0.3,0c-5.7,0-11.3,0-17,0c-0.8,0-1.4-0.3-1.7-1.1
		C645.3,546.8,645.3,546.6,645.3,546.5z"/>
	<path class="st3" d="M645.3,553.2c0,0,0-0.1,0.1-0.1c0.2-0.6,0.7-1,1.3-1c0.8,0,1.7,0,2.5,0c5,0,10,0,15,0c0.7,0,1.2,0.4,1.4,1
		c0.2,0.7-0.2,1.4-0.9,1.6c-0.1,0-0.1,0-0.2,0.1c-6,0-12,0-18,0c-0.3-0.1-0.7-0.2-0.9-0.6c-0.1-0.2-0.2-0.4-0.3-0.5
		C645.3,553.6,645.3,553.4,645.3,553.2z"/>
</g>
<g>
	<g>
		<g>
			<path class="st4" d="M723.4-189.8v20.2h-5.4v-20.2H723.4z"/>
			<path class="st4" d="M751.3-170.1c-0.8,0.4-2.7,0.8-5.1,0.8c-7.6,0-10.9-4.7-10.9-10.1c0-7.1,5.2-10.8,11.3-10.8
				c2.3,0,4.2,0.4,5.1,0.9l-1.1,4.3c-0.9-0.4-2.1-0.7-3.7-0.7c-3.1,0-5.8,1.8-5.8,6c0,3.7,2.2,6,5.9,6c1.3,0,2.8-0.3,3.6-0.6
				L751.3-170.1z"/>
			<path class="st4" d="M775.9-177.8h-7.3v3.7h8.1v4.4h-13.6v-20.2h13.1v4.4h-7.7v3.3h7.3V-177.8z"/>
		</g>
	</g>
	<g>
		<g>
			<path class="st5" d="M716.1-161.7l-0.4,1.3h-0.9l1.5-4.7h1.1l1.5,4.7H718l-0.4-1.3H716.1z M717.5-162.3l-0.4-1.2
				c-0.1-0.3-0.2-0.6-0.2-0.9h0c-0.1,0.3-0.1,0.6-0.2,0.9l-0.4,1.2H717.5z"/>
			<path class="st5" d="M719.6-162.7c0-0.5,0-0.8,0-1.1h0.7l0,0.6h0c0.2-0.5,0.6-0.7,0.9-0.7c0.1,0,0.1,0,0.2,0v0.8
				c-0.1,0-0.1,0-0.3,0c-0.4,0-0.7,0.3-0.8,0.7c0,0.1,0,0.2,0,0.3v1.8h-0.9V-162.7z"/>
			<path class="st5" d="M724-160.4l-0.1-0.4h0c-0.2,0.3-0.6,0.5-1,0.5c-0.7,0-1.1-0.5-1.1-1c0-0.9,0.8-1.3,2-1.3v-0.1
				c0-0.2-0.1-0.6-0.7-0.6c-0.3,0-0.7,0.1-0.9,0.3l-0.2-0.6c0.3-0.2,0.7-0.3,1.2-0.3c1.1,0,1.4,0.7,1.4,1.4v1.2c0,0.3,0,0.6,0.1,0.8
				H724z M723.9-162c-0.6,0-1.2,0.1-1.2,0.6c0,0.3,0.2,0.5,0.5,0.5c0.3,0,0.6-0.2,0.7-0.5c0-0.1,0-0.1,0-0.2V-162z"/>
			<path class="st5" d="M728.1-160.5c-0.2,0.1-0.5,0.2-1,0.2c-1.1,0-1.8-0.7-1.8-1.7c0-1,0.7-1.8,1.9-1.8c0.3,0,0.6,0.1,0.8,0.2
				L728-163c-0.1-0.1-0.3-0.1-0.7-0.1c-0.7,0-1,0.5-1,1.1c0,0.7,0.5,1.1,1,1.1c0.3,0,0.5-0.1,0.7-0.1L728.1-160.5z M727.3-160.4
				l-0.2,0.4c0.3,0,0.5,0.2,0.5,0.5c0,0.4-0.4,0.6-0.8,0.6c-0.2,0-0.4-0.1-0.5-0.1l0.1-0.4c0.1,0.1,0.3,0.1,0.4,0.1
				c0.1,0,0.3-0.1,0.3-0.2c0-0.2-0.2-0.2-0.5-0.3l0.3-0.6H727.3z"/>
			<path class="st5" d="M731.3-160.4v-2l-1.5-2.8h1l0.6,1.2c0.2,0.3,0.3,0.6,0.4,0.9h0c0.1-0.3,0.3-0.6,0.4-0.9l0.6-1.2h1l-1.6,2.7
				v2H731.3z"/>
			<path class="st5" d="M737.5-162.1c0,1.3-0.9,1.8-1.8,1.8c-1,0-1.7-0.7-1.7-1.8c0-1.1,0.7-1.8,1.8-1.8
				C736.8-163.8,737.5-163.1,737.5-162.1z M734.6-164.7c0-0.2,0.2-0.4,0.4-0.4c0.2,0,0.4,0.2,0.4,0.4c0,0.2-0.2,0.4-0.4,0.4
				C734.8-164.3,734.6-164.5,734.6-164.7z M734.9-162.1c0,0.7,0.3,1.2,0.8,1.2c0.5,0,0.8-0.5,0.8-1.2c0-0.5-0.2-1.1-0.8-1.1
				C735.2-163.2,734.9-162.6,734.9-162.1z M736-164.7c0-0.2,0.2-0.4,0.4-0.4c0.2,0,0.4,0.2,0.4,0.4c0,0.2-0.2,0.4-0.4,0.4
				C736.2-164.3,736-164.5,736-164.7z"/>
			<path class="st5" d="M738.2-162.7c0-0.4,0-0.7,0-1h0.8l0,0.5h0c0.2-0.3,0.5-0.6,1.1-0.6c0.6,0,1.2,0.4,1.2,1.5v2h-0.9v-1.9
				c0-0.5-0.2-0.9-0.7-0.9c-0.3,0-0.6,0.2-0.7,0.5c0,0.1,0,0.2,0,0.3v2h-0.9V-162.7z"/>
			<path class="st5" d="M742.8-161.8c0,0.6,0.5,0.9,1.1,0.9c0.4,0,0.7-0.1,0.9-0.2l0.1,0.6c-0.3,0.1-0.7,0.2-1.2,0.2
				c-1.1,0-1.8-0.7-1.8-1.7c0-0.9,0.6-1.8,1.7-1.8c1.1,0,1.5,0.9,1.5,1.7c0,0.2,0,0.3,0,0.4H742.8z M744.3-162.4
				c0-0.3-0.1-0.8-0.7-0.8c-0.5,0-0.8,0.5-0.8,0.8H744.3z"/>
			<path class="st5" d="M746.8-164.7v1h0.8v0.6h-0.8v1.5c0,0.4,0.1,0.6,0.4,0.6c0.1,0,0.3,0,0.3,0l0,0.7c-0.1,0-0.4,0.1-0.6,0.1
				c-0.3,0-0.6-0.1-0.7-0.3c-0.2-0.2-0.3-0.5-0.3-1v-1.6h-0.5v-0.6h0.5v-0.8L746.8-164.7z"/>
			<path class="st5" d="M749.2-164.7c0,0.3-0.2,0.5-0.5,0.5c-0.3,0-0.5-0.2-0.5-0.5c0-0.3,0.2-0.5,0.5-0.5
				C749-165.2,749.2-165,749.2-164.7z M748.3-160.4v-3.4h0.9v3.4H748.3z"/>
			<path class="st5" d="M750.1-162.7c0-0.4,0-0.7,0-1h0.7l0,0.5h0c0.2-0.3,0.5-0.6,1-0.6c0.5,0,0.8,0.3,0.9,0.6h0
				c0.1-0.2,0.3-0.3,0.4-0.4c0.2-0.1,0.4-0.2,0.7-0.2c0.6,0,1.1,0.4,1.1,1.5v2h-0.8v-1.9c0-0.6-0.2-0.9-0.6-0.9
				c-0.3,0-0.5,0.2-0.6,0.5c0,0.1,0,0.2,0,0.3v2h-0.8v-2c0-0.5-0.2-0.8-0.6-0.8c-0.3,0-0.5,0.3-0.6,0.5c0,0.1,0,0.2,0,0.3v2h-0.8
				V-162.7z"/>
			<path class="st5" d="M757.4-161.3c0.3,0.2,0.7,0.3,1.1,0.3c0.6,0,0.9-0.3,0.9-0.6c0-0.4-0.2-0.6-0.8-0.8
				c-0.8-0.3-1.3-0.7-1.3-1.4c0-0.8,0.6-1.4,1.7-1.4c0.5,0,0.9,0.1,1.1,0.2l-0.2,0.7c-0.2-0.1-0.5-0.2-0.9-0.2
				c-0.5,0-0.8,0.3-0.8,0.6c0,0.4,0.3,0.5,0.9,0.8c0.8,0.3,1.2,0.7,1.2,1.4c0,0.8-0.6,1.4-1.8,1.4c-0.5,0-1-0.1-1.3-0.3L757.4-161.3
				z"/>
			<path class="st5" d="M762-164.7c0,0.3-0.2,0.5-0.5,0.5c-0.3,0-0.5-0.2-0.5-0.5c0-0.3,0.2-0.5,0.5-0.5
				C761.8-165.2,762-165,762-164.7z M761.1-160.4v-3.4h0.9v3.4H761.1z"/>
			<path class="st5" d="M762.8-161.1c0.2,0.1,0.6,0.2,0.9,0.2c0.4,0,0.5-0.2,0.5-0.4c0-0.2-0.1-0.3-0.6-0.5c-0.7-0.2-0.9-0.6-0.9-1
				c0-0.6,0.5-1.1,1.3-1.1c0.4,0,0.7,0.1,0.9,0.2l-0.2,0.6c-0.1-0.1-0.4-0.2-0.7-0.2c-0.3,0-0.5,0.2-0.5,0.4c0,0.2,0.2,0.3,0.6,0.5
				c0.6,0.2,0.9,0.5,0.9,1c0,0.6-0.5,1.1-1.4,1.1c-0.4,0-0.8-0.1-1-0.2L762.8-161.1z"/>
			<path class="st5" d="M766.8-164.7v1h0.8v0.6h-0.8v1.5c0,0.4,0.1,0.6,0.4,0.6c0.1,0,0.3,0,0.3,0l0,0.7c-0.1,0-0.4,0.1-0.6,0.1
				c-0.3,0-0.6-0.1-0.7-0.3c-0.2-0.2-0.3-0.5-0.3-1v-1.6h-0.5v-0.6h0.5v-0.8L766.8-164.7z"/>
			<path class="st5" d="M768.8-161.8c0,0.6,0.5,0.9,1.1,0.9c0.4,0,0.7-0.1,0.9-0.2l0.1,0.6c-0.3,0.1-0.7,0.2-1.2,0.2
				c-1.1,0-1.8-0.7-1.8-1.7c0-0.9,0.6-1.8,1.7-1.8c1.1,0,1.5,0.9,1.5,1.7c0,0.2,0,0.3,0,0.4H768.8z M770.3-162.4
				c0-0.3-0.1-0.8-0.7-0.8c-0.5,0-0.8,0.5-0.8,0.8H770.3z"/>
			<path class="st5" d="M771.8-162.7c0-0.4,0-0.7,0-1h0.7l0,0.5h0c0.2-0.3,0.5-0.6,1-0.6c0.5,0,0.8,0.3,0.9,0.6h0
				c0.1-0.2,0.3-0.3,0.4-0.4c0.2-0.1,0.4-0.2,0.7-0.2c0.6,0,1.1,0.4,1.1,1.5v2H776v-1.9c0-0.6-0.2-0.9-0.6-0.9
				c-0.3,0-0.5,0.2-0.6,0.5c0,0.1,0,0.2,0,0.3v2h-0.8v-2c0-0.5-0.2-0.8-0.6-0.8c-0.3,0-0.5,0.3-0.6,0.5c0,0.1,0,0.2,0,0.3v2h-0.8
				V-162.7z"/>
			<path class="st5" d="M778.7-164.7c0,0.3-0.2,0.5-0.5,0.5c-0.3,0-0.5-0.2-0.5-0.5c0-0.3,0.2-0.5,0.5-0.5
				C778.5-165.2,778.7-165,778.7-164.7z M777.8-160.4v-3.4h0.9v3.4H777.8z"/>
		</g>
	</g>
	<g>
		<polygon class="st5" points="682.9,-189 682.9,-179.7 692.4,-184.3 701.9,-189 692.4,-193.6 682.9,-198.2 		"/>
		<polygon class="st4" points="682.9,-189 682.9,-179.7 673.4,-184.3 663.9,-189 673.4,-193.6 682.9,-198.2 		"/>
		<polygon class="st5" points="682.9,-154.9 663.9,-164.1 663.9,-189 682.9,-179.7 		"/>
		<polygon class="st4" points="682.9,-154.9 701.9,-164.1 701.9,-189 682.9,-179.7 		"/>
	</g>
</g>
<path class="st3" d="M801.6,188.9H798c-0.3,0-0.4,0.3-0.2,0.5l1.7,1.8l1.9,2.1c0.1,0.1,0.3,0.1,0.4,0l1.9-2.1l1.7-1.8
	c0.2-0.2,0-0.5-0.2-0.5H801.6z"/>
<rect x="633" y="-84.5" class="st6" width="194.6" height="247.2"/>
<text transform="matrix(1 0 0 1 686.8922 -52.224)" class="st3" style="font-family:'HelveticaNeue-Bold'; font-size:13px;">ARAÇLARIM</text>
<g>
	<path class="st3" d="M656.6-52.2c-0.5-0.1-1-0.4-1.3-0.9c-0.1-0.2-0.2-0.3-0.2-0.5c0-0.2-0.1-0.3-0.3-0.3c-0.8,0-1.5,0-2.3,0
		c-2,0-4,0-6.1,0c-0.2,0-0.3,0-0.3,0.3c-0.2,0.7-0.6,1.1-1.3,1.3c-0.1,0-0.1,0-0.2,0.1c-0.2,0-0.3,0-0.5,0c0,0,0,0,0,0
		c-0.6-0.1-1-0.5-1.3-1c0-0.1-0.1-0.1-0.2-0.1c-0.2,0-0.5,0-0.8,0c0-0.2,0-0.3,0-0.4c-0.1,0-0.1,0-0.1,0c0,0-0.1,0-0.1,0
		c0-1.1-0.1-2.2,0.4-3.2c0.1-0.1,0.1-0.3,0.2-0.4c0.6-0.7,1.2-1.3,1.8-2c0.3-0.3,0.6-0.5,1-0.5c2.3-0.2,4.6-0.2,7,0
		c0.7,0.1,1.4,0.3,1.9,0.8c0.5,0.4,1,0.9,1.5,1.3c0.1,0.1,0.2,0.2,0.4,0.2c1.2,0.3,2.4,0.6,3.6,0.9c0.4,0.1,0.6,0.2,0.7,0.6
		c0.1,0.2,0.1,0.5,0.3,0.7c0.3,0.2,0.3,0.5,0.2,0.8c0,0.2-0.1,0.3-0.1,0.5c0,0.2,0,0.5-0.4,0.4c0,0.2,0,0.3,0,0.4
		c-0.5,0-0.9,0-1.3,0c-0.1,0-0.2,0-0.3,0.2c-0.1,0.2-0.2,0.4-0.4,0.5c-0.3,0.2-0.6,0.3-0.9,0.5C657-52.2,656.8-52.2,656.6-52.2z
		 M645.3-59.3c-0.1,0-0.1,0-0.2,0.1c-0.4,0.5-0.8,1-1.2,1.5c1.4,0,2.9,0,4.3,0c0-0.6,0-1.1,0-1.7C647.2-59.4,646.2-59.3,645.3-59.3z
		 M649.3-57.9c0,0.1,0,0.1,0,0.2c1.4,0,2.8,0,4.3,0c-0.1-0.1-0.2-0.2-0.3-0.3c-0.3-0.3-0.5-0.7-0.8-1c-0.1-0.1-0.1-0.1-0.2-0.2
		c-1-0.1-2-0.1-3-0.2C649.3-58.9,649.3-58.4,649.3-57.9z M643.8-54c0,0.3,0.3,0.6,0.6,0.6c0.3,0,0.7-0.3,0.6-0.7
		c0-0.3-0.3-0.6-0.6-0.6C644.1-54.6,643.8-54.3,643.8-54z M656.8-53.3c0.3,0,0.7-0.3,0.6-0.7c0-0.3-0.3-0.6-0.6-0.6
		c-0.3,0-0.7,0.3-0.6,0.7C656.2-53.6,656.5-53.3,656.8-53.3z"/>
	<path class="st3" d="M668.5-57.9c-0.5,0-1.1,0-1.6,0c-0.3,0-0.5,0-0.8,0c0,0,0,0.1,0,0.1c0.1,0,0.1,0.1,0.2,0.1c0.3,0,0.7,0,1,0
		c0.3,0,0.6,0,0.8,0c0,0.3,0,0.6,0,0.9c-0.6,0-1.2,0-1.8,0c-0.2,0-0.3,0.1-0.3,0.2c-0.4,0.9-1,1.4-2,1.4c-0.9,0.1-1.6-0.3-2-1.1
		c-0.2-0.5-0.5-0.6-1-0.6c0,0-0.1,0-0.1,0c-0.2,0-0.3,0-0.3-0.2c0-0.2-0.1-0.4-0.4-0.4c0,0-0.1-0.1-0.2-0.2c0.5,0,1,0,1.4,0
		c0.2,0,0.2,0,0.2-0.2c-0.5,0-1,0-1.6,0c0-2.8,0-5.6,0-8.4c0,0,0.1,0,0.1,0c1.6,0,3.1,0,4.7,0c0.1,0,0.2,0.1,0.2,0.1
		c1,1.2,1.9,2.4,2.8,3.7c0.1,0.1,0.1,0.2,0.1,0.4c0,0.6,0,1.2,0,1.8c0,0.4,0.1,0.7,0.5,1C668.5-58.9,668.5-58.4,668.5-57.9z
		 M660.9-62.7c0,0.1,0,0.1,0,0.2c1.9,0,3.7,0,5.6,0c0-0.1,0-0.1-0.1-0.2c-0.6-0.9-1.2-1.7-1.8-2.6c-0.1-0.1-0.2-0.1-0.2-0.1
		c-1.1,0-2.2,0-3.3,0c0,0-0.1,0-0.1,0C660.9-64.5,660.9-63.6,660.9-62.7z M664.9-57.4c0-0.6-0.5-1.1-1.1-1.1c-0.6,0-1.1,0.5-1.1,1.1
		c0,0.6,0.5,1.1,1.1,1.1C664.4-56.3,664.9-56.8,664.9-57.4z"/>
	<path class="st3" d="M659.8-57.5c0-0.1,0-0.2,0-0.3c0-2.7,0-5.4,0-8.2c0-0.1,0.1-0.3-0.2-0.4c0,0,0-0.1,0-0.2c0-0.6,0-1.3,0-1.9
		c-5.8,0-11.6,0-17.4,0c0,3.2,0,6.3,0,9.5c0.1-0.1,0.1-0.1,0.2-0.1c0.3-0.4,0.6-0.7,0.9-1.1c0.4-0.4,0.8-0.7,1.4-0.7
		c2.3-0.2,4.7-0.2,7,0c1.1,0.1,2.1,0.5,2.9,1.3c0.2,0.2,0.4,0.3,0.6,0.5c0.4,0.4,0.9,0.6,1.4,0.7C657.6-58.1,658.7-57.8,659.8-57.5z
		"/>
</g>
<text transform="matrix(1 0 0 1 686.8138 -8.2936)" style="fill:#999593; font-family:'HelveticaNeue-Bold'; font-size:12px;">Araçlarım</text>
<g>
	<path class="st3" d="M656.4-6.3c-0.5-0.1-0.8-0.3-1.1-0.7c-0.1-0.1-0.2-0.3-0.2-0.4c0-0.2-0.1-0.2-0.3-0.2c-0.6,0-1.3,0-1.9,0
		c-1.7,0-3.4,0-5.1,0c-0.2,0-0.2,0-0.3,0.2c-0.1,0.6-0.5,0.9-1.1,1.1c-0.1,0-0.1,0-0.2,0c-0.1,0-0.3,0-0.4,0c0,0,0,0,0,0
		c-0.5-0.1-0.9-0.4-1.1-0.8c0-0.1-0.1-0.1-0.2-0.1c-0.2,0-0.4,0-0.6,0c0-0.1,0-0.3,0-0.4c0,0-0.1,0-0.1,0c0,0-0.1,0-0.1,0
		c0-0.9-0.1-1.8,0.3-2.7c0.1-0.1,0.1-0.3,0.2-0.4c0.5-0.6,1-1.1,1.5-1.7c0.2-0.3,0.5-0.4,0.9-0.4c2-0.1,3.9-0.1,5.9,0
		c0.6,0,1.2,0.2,1.6,0.7c0.4,0.4,0.8,0.7,1.2,1.1c0.1,0.1,0.2,0.1,0.3,0.2c1,0.3,2,0.5,3.1,0.8c0.3,0.1,0.5,0.2,0.6,0.5
		c0,0.2,0.1,0.5,0.3,0.6c0.2,0.2,0.3,0.4,0.2,0.7c0,0.1-0.1,0.3-0.1,0.4c0,0.2,0,0.4-0.3,0.3c0,0.1,0,0.2,0,0.4c-0.4,0-0.8,0-1.1,0
		c-0.1,0-0.2,0-0.2,0.1c-0.1,0.2-0.2,0.3-0.3,0.4c-0.2,0.2-0.5,0.3-0.7,0.4C656.7-6.3,656.5-6.3,656.4-6.3z M646.8-12.2
		c0,0-0.1,0-0.1,0.1c-0.3,0.4-0.7,0.8-1,1.3c1.2,0,2.4,0,3.6,0c0-0.5,0-0.9,0-1.5C648.4-12.3,647.6-12.3,646.8-12.2z M650.2-11
		c0,0,0,0.1,0,0.1c1.2,0,2.4,0,3.6,0c-0.1-0.1-0.2-0.2-0.2-0.3c-0.2-0.3-0.5-0.6-0.7-0.9c0-0.1-0.1-0.1-0.2-0.1
		c-0.8-0.1-1.7-0.1-2.5-0.2C650.2-11.9,650.2-11.5,650.2-11z M645.5-7.8c0,0.3,0.3,0.5,0.5,0.5c0.3,0,0.6-0.3,0.5-0.6
		c0-0.3-0.3-0.5-0.5-0.5C645.8-8.3,645.5-8.1,645.5-7.8z M656.6-7.2c0.3,0,0.5-0.3,0.5-0.6c0-0.3-0.3-0.5-0.5-0.5
		c-0.3,0-0.5,0.3-0.5,0.6C656-7.5,656.3-7.2,656.6-7.2z"/>
	<path class="st3" d="M666.4-11.1c-0.4,0-0.9,0-1.3,0c-0.2,0-0.5,0-0.7,0c0,0,0,0.1,0,0.1c0.1,0,0.1,0.1,0.2,0.1c0.3,0,0.6,0,0.9,0
		c0.2,0,0.5,0,0.7,0c0,0.3,0,0.5,0,0.7c-0.5,0-1,0-1.5,0c-0.2,0-0.2,0-0.3,0.2c-0.3,0.7-0.9,1.2-1.7,1.2c-0.7,0-1.4-0.3-1.7-0.9
		c-0.2-0.4-0.5-0.5-0.9-0.5c0,0-0.1,0-0.1,0c-0.2,0-0.2,0-0.3-0.2c0-0.2-0.1-0.3-0.3-0.4c0,0-0.1-0.1-0.1-0.2c0.4,0,0.8,0,1.2,0
		c0.1,0,0.2,0,0.2-0.2c-0.4,0-0.9,0-1.3,0c0-2.4,0-4.7,0-7.1c0,0,0,0,0.1,0c1.3,0,2.6,0,4,0c0.1,0,0.2,0.1,0.2,0.1
		c0.8,1,1.6,2.1,2.4,3.1c0.1,0.1,0.1,0.2,0.1,0.3c0,0.5,0,1,0,1.5c0,0.4,0.1,0.6,0.4,0.8C666.4-11.9,666.4-11.5,666.4-11.1z
		 M660-15.1c0,0,0,0.1,0,0.1c1.6,0,3.1,0,4.7,0c0,0,0-0.1-0.1-0.1c-0.5-0.7-1-1.4-1.5-2.2c0-0.1-0.1-0.1-0.2-0.1c-0.9,0-1.9,0-2.8,0
		c0,0-0.1,0-0.1,0C660-16.6,660-15.9,660-15.1z M663.4-10.6c0-0.5-0.4-0.9-0.9-0.9c-0.5,0-0.9,0.4-0.9,0.9c0,0.5,0.4,0.9,0.9,0.9
		C663-9.7,663.4-10.1,663.4-10.6z"/>
	<path class="st3" d="M659-10.8c0-0.1,0-0.2,0-0.3c0-2.3,0-4.6,0-6.9c0-0.1,0.1-0.3-0.1-0.3c0,0,0-0.1,0-0.2c0-0.5,0-1.1,0-1.6
		c-4.9,0-9.8,0-14.7,0c0,2.7,0,5.3,0,8c0.1,0,0.1-0.1,0.1-0.1c0.3-0.3,0.5-0.6,0.8-0.9c0.3-0.4,0.7-0.5,1.2-0.6c2-0.1,3.9-0.1,5.9,0
		c0.9,0.1,1.7,0.4,2.4,1.1c0.2,0.2,0.3,0.3,0.5,0.4c0.3,0.3,0.7,0.5,1.2,0.6C657.2-11.2,658.1-11,659-10.8z"/>
</g>
<path class="st3" d="M801.6-54.1l3.6,0c0.3,0,0.4-0.3,0.2-0.5l-1.7-1.8l-1.9-2.1c-0.1-0.1-0.3-0.1-0.4,0l-1.9,2.1l-1.7,1.8
	c-0.2,0.2,0,0.5,0.2,0.5H801.6z"/>
<text transform="matrix(1 0 0 1 686.8138 21.4504)" style="fill:#999593; font-family:'HelveticaNeue-Bold'; font-size:12px;">Servis / Bakım</text>
<g>
	<path class="st3" d="M662,12.4c-0.1,0.2-0.1,0.4-0.2,0.7c-0.4,1.1-1.6,1.7-2.8,1.4c-0.2,0-0.3,0-0.5,0.1c-1.8,1.8-3.6,3.6-5.4,5.4
		c-0.1,0.1-0.2,0.3-0.1,0.5c0.3,1.4-0.6,2.7-1.9,2.9c-1.3,0.3-2.7-0.6-2.9-1.9c-0.3-1.5,0.9-3,2.4-3c0.2,0,0.3,0,0.5,0.1
		c0.2,0,0.3,0,0.4-0.1c1.8-1.8,3.6-3.6,5.5-5.5c0.1-0.1,0.2-0.3,0.1-0.4c-0.2-1,0.1-1.8,0.9-2.4c0.3-0.3,0.8-0.5,1.2-0.5
		c0,0,0.1,0,0.1,0c0.1,0,0.3,0,0.4,0c0,0-0.1,0.1-0.1,0.1c-0.4,0.4-0.8,0.8-1.1,1.1c-0.1,0.1-0.1,0.2-0.1,0.4
		c0.2,0.4,0.3,0.9,0.4,1.3c0,0.1,0.1,0.2,0.3,0.3c0.4,0.1,0.9,0.3,1.3,0.4c0.2,0.1,0.3,0,0.4-0.1c0.4-0.4,0.7-0.8,1.1-1.1
		c0,0,0.1-0.1,0.1-0.1C662,12.1,662,12.3,662,12.4z M657.6,13.7c-1.8,1.8-3.6,3.6-5.4,5.4c0.1,0.1,0.2,0.2,0.3,0.3
		c1.8-1.8,3.6-3.6,5.4-5.4C657.8,13.9,657.7,13.8,657.6,13.7z M650.6,22c0.2,0,0.3,0,0.5,0c0,0,0.1,0,0.1-0.1
		c0.2-0.3,0.3-0.6,0.5-0.8c0,0,0-0.1,0-0.1c-0.2-0.3-0.3-0.6-0.5-0.8c0,0-0.1-0.1-0.1-0.1c-0.3,0-0.7,0-1,0c0,0-0.1,0-0.1,0.1
		c-0.2,0.3-0.3,0.6-0.5,0.8c0,0,0,0.1,0,0.1c0.2,0.3,0.3,0.6,0.5,0.8c0,0,0.1,0.1,0.1,0.1C650.2,22,650.4,22,650.6,22z"/>
	<path class="st3" d="M662,22.2c-0.1,0.3-0.2,0.6-0.4,0.8c-0.4,0.4-1.1,0.6-1.6,0.4c0.6-0.6,1.3-1.3,1.9-1.9c0,0.1,0.1,0.2,0.1,0.3
		C662,22,662,22.1,662,22.2z"/>
	<path class="st3" d="M657.3,16.7c0.1,0.1,0.2,0.2,0.4,0.4c-0.2,0.4-0.2,0.8,0.1,1c0.2,0.2,0.6,0.3,1,0.1c1,1,1.9,1.9,2.9,2.9
		c-0.7,0.7-1.4,1.4-2.1,2.1c0,0-0.1-0.1-0.1-0.1c-0.9-0.9-1.8-1.8-2.7-2.7c-0.1-0.1-0.1-0.1,0-0.2c0.2-0.3,0.1-0.7-0.1-1
		c-0.3-0.3-0.7-0.3-1-0.1c0,0,0,0-0.1,0c-0.1-0.1-0.3-0.3-0.4-0.4C655.9,18.1,656.6,17.4,657.3,16.7z M660.4,21.6
		c-0.8-0.8-1.6-1.6-2.5-2.5c-0.1,0.1-0.2,0.2-0.3,0.3c0.8,0.8,1.6,1.6,2.5,2.5C660.2,21.8,660.3,21.7,660.4,21.6z"/>
	<path class="st3" d="M654.2,15.1c-0.2,0.2-0.4,0.4-0.7,0.7c0,0-0.1-0.1-0.1-0.1c-1.1-1.1-2.2-2.2-3.3-3.3c-0.1-0.1-0.2-0.2-0.3-0.2
		c-0.2,0-0.4-0.1-0.7-0.2c0,0-0.1,0-0.1-0.1c-0.3-0.5-0.5-0.9-0.8-1.4c0.2-0.2,0.5-0.5,0.7-0.7c0.5,0.3,0.9,0.5,1.4,0.8
		c0,0,0.1,0.1,0.1,0.1c0.1,0.2,0.1,0.5,0.2,0.7c0,0.1,0.1,0.2,0.2,0.3c1.1,1.1,2.2,2.2,3.4,3.4C654.1,15,654.2,15,654.2,15.1z"/>
</g>
<text transform="matrix(1 0 0 1 686.8138 80.8171)" style="fill:#999593; font-family:'HelveticaNeue-Bold'; font-size:12px;">Servis / Bakım</text>
<g>
	<path class="st3" d="M662,71.8c-0.1,0.2-0.1,0.4-0.2,0.7c-0.4,1.1-1.6,1.7-2.8,1.4c-0.2,0-0.3,0-0.5,0.1c-1.8,1.8-3.6,3.6-5.4,5.4
		c-0.1,0.1-0.2,0.3-0.1,0.5c0.3,1.4-0.6,2.7-1.9,2.9c-1.3,0.3-2.7-0.6-2.9-1.9c-0.3-1.5,0.9-3,2.4-3c0.2,0,0.3,0,0.5,0.1
		c0.2,0,0.3,0,0.4-0.1c1.8-1.8,3.6-3.6,5.5-5.5c0.1-0.1,0.2-0.3,0.1-0.4c-0.2-1,0.1-1.8,0.9-2.4c0.3-0.3,0.8-0.5,1.2-0.5
		c0,0,0.1,0,0.1,0c0.1,0,0.3,0,0.4,0c0,0-0.1,0.1-0.1,0.1c-0.4,0.4-0.8,0.8-1.1,1.1c-0.1,0.1-0.1,0.2-0.1,0.4
		c0.2,0.4,0.3,0.9,0.4,1.3c0,0.1,0.1,0.2,0.3,0.3c0.4,0.1,0.9,0.3,1.3,0.4c0.2,0.1,0.3,0,0.4-0.1c0.4-0.4,0.7-0.8,1.1-1.1
		c0,0,0.1-0.1,0.1-0.1C662,71.5,662,71.7,662,71.8z M657.6,73.1c-1.8,1.8-3.6,3.6-5.4,5.4c0.1,0.1,0.2,0.2,0.3,0.3
		c1.8-1.8,3.6-3.6,5.4-5.4C657.8,73.3,657.7,73.2,657.6,73.1z M650.6,81.4c0.2,0,0.3,0,0.5,0c0,0,0.1,0,0.1-0.1
		c0.2-0.3,0.3-0.6,0.5-0.8c0,0,0-0.1,0-0.1c-0.2-0.3-0.3-0.6-0.5-0.8c0,0-0.1-0.1-0.1-0.1c-0.3,0-0.7,0-1,0c0,0-0.1,0-0.1,0.1
		c-0.2,0.3-0.3,0.6-0.5,0.8c0,0,0,0.1,0,0.1c0.2,0.3,0.3,0.6,0.5,0.8c0,0,0.1,0.1,0.1,0.1C650.2,81.4,650.4,81.4,650.6,81.4z"/>
	<path class="st3" d="M662,81.6c-0.1,0.3-0.2,0.6-0.4,0.8c-0.4,0.4-1.1,0.6-1.6,0.4c0.6-0.6,1.3-1.3,1.9-1.9c0,0.1,0.1,0.2,0.1,0.3
		C662,81.3,662,81.5,662,81.6z"/>
	<path class="st3" d="M657.3,76.1c0.1,0.1,0.2,0.2,0.4,0.4c-0.2,0.4-0.2,0.8,0.1,1c0.2,0.2,0.6,0.3,1,0.1c1,1,1.9,1.9,2.9,2.9
		c-0.7,0.7-1.4,1.4-2.1,2.1c0,0-0.1-0.1-0.1-0.1c-0.9-0.9-1.8-1.8-2.7-2.7c-0.1-0.1-0.1-0.1,0-0.2c0.2-0.3,0.1-0.7-0.1-1
		c-0.3-0.3-0.7-0.3-1-0.1c0,0,0,0-0.1,0c-0.1-0.1-0.3-0.3-0.4-0.4C655.9,77.5,656.6,76.8,657.3,76.1z M660.4,81
		c-0.8-0.8-1.6-1.6-2.5-2.5c-0.1,0.1-0.2,0.2-0.3,0.3c0.8,0.8,1.6,1.6,2.5,2.5C660.2,81.2,660.3,81.1,660.4,81z"/>
	<path class="st3" d="M654.2,74.4c-0.2,0.2-0.4,0.4-0.7,0.7c0,0-0.1-0.1-0.1-0.1c-1.1-1.1-2.2-2.2-3.3-3.3c-0.1-0.1-0.2-0.2-0.3-0.2
		c-0.2,0-0.4-0.1-0.7-0.2c0,0-0.1,0-0.1-0.1c-0.3-0.5-0.5-0.9-0.8-1.4c0.2-0.2,0.5-0.5,0.7-0.7c0.5,0.3,0.9,0.5,1.4,0.8
		c0,0,0.1,0.1,0.1,0.1c0.1,0.2,0.1,0.5,0.2,0.7c0,0.1,0.1,0.2,0.2,0.3c1.1,1.1,2.2,2.2,3.4,3.4C654.1,74.4,654.2,74.4,654.2,74.4z"
		/>
</g>
<text transform="matrix(1 0 0 1 686.8138 51.0153)" style="fill:#999593; font-family:'HelveticaNeue-Bold'; font-size:12px;">Vize / Muayene</text>
<g>
	<path class="st3" d="M646,46.4c0.1-0.1,0.2-0.2,0.3-0.3c0.1-0.1,0.3-0.1,0.4-0.2c0.5-0.4,1-0.4,1.6-0.4c1.7,0,3.5,0,5.2,0
		c0.1,0,0.1,0,0.2,0c0,0.3,0,0.6,0,1c-0.1,0-0.1,0-0.2,0c-1,0-2,0-2.9,0c-0.7,0-1.2,0.5-1.3,1.1c-0.1,0.5,0.2,0.8,0.7,0.8
		c1.2,0,2.3,0,3.5,0c0.1,0,0.1,0,0.2,0c0,0.3,0,0.6,0,1c-0.1,0-0.2,0-0.2,0c-1.1,0-2.1,0-3.2,0c-0.1,0-0.2,0-0.2,0
		c-0.1,0-0.2,0.2-0.2,0.3c0,0.2,0.1,0.3,0.3,0.3c0.1,0,0.1,0,0.2,0c1,0,2.1,0,3.1,0c0.1,0,0.1,0,0.2,0c0,0.3,0,0.6,0,1
		c-0.1,0-0.1,0-0.2,0c-2.4,0-4.7,0-7.1,0c-0.2,0-0.3-0.1-0.4-0.2C646,49.3,646,47.9,646,46.4z M648.6,47.5c0-0.1,0-0.2,0-0.4
		c0-0.5-0.4-0.9-0.9-0.9c-0.5,0-1,0.4-1,0.9c0,0.2,0,0.5,0,0.7c0,0.5,0.5,0.9,1,0.9c0.5,0,0.9-0.4,0.9-0.9
		C648.6,47.7,648.6,47.6,648.6,47.5z M647.6,50c0.1,0,0.3,0,0.4,0c0.2,0,0.3-0.1,0.3-0.3c0-0.2-0.1-0.3-0.2-0.3c-0.3,0-0.5,0-0.8,0
		c-0.2,0-0.2,0.2-0.2,0.3c0,0.2,0.1,0.3,0.3,0.3C647.4,50,647.5,50,647.6,50z"/>
	<path class="st3" d="M646,44.5c0.1-0.2,0.6-0.3,0.8-0.2c0.1,0.1,0.2,0.2,0.2,0.3c0,0.1,0,0.1,0,0.2c-0.2,0-0.5,0-0.7,0
		c-0.1,0-0.2-0.1-0.3-0.2C646,44.6,646,44.5,646,44.5z"/>
	<path class="st3" d="M656.9,40.7c0.1,0.5,0.3,0.6,0.8,0.6c0.9,0,1.9,0,2.8,0c0.6,0,0.7-0.1,0.9-0.6c0.7,0,1.3,0,2,0
		c0.3,0,0.5,0.3,0.6,0.6c0,0.1,0,0.1,0,0.2c0,3.5,0,7.1,0,10.6c0,0.5-0.2,0.8-0.8,0.8c-2.7,0-5.4,0-8.1,0c-0.5,0-0.8-0.2-0.8-0.8
		c0-3.5,0-7.1,0-10.6c0-0.5,0.2-0.8,0.8-0.8C655.7,40.7,656.3,40.7,656.9,40.7z M656.6,47.3C656.5,47.2,656.5,47.2,656.6,47.3
		c-0.1-0.1-0.2-0.2-0.3-0.3c-0.2-0.2-0.4-0.2-0.5,0c-0.1,0.1-0.1,0.3,0,0.5c0.2,0.2,0.4,0.4,0.5,0.5c0.2,0.2,0.4,0.2,0.6-0.1
		c0.4-0.6,0.8-1.2,1.2-1.7c0,0,0-0.1,0.1-0.1c0.1-0.2,0.1-0.4-0.1-0.4c-0.1-0.1-0.3-0.1-0.4,0.1c0,0-0.1,0.1-0.1,0.1
		C657.2,46.3,656.9,46.8,656.6,47.3z M656.5,50.5c-0.1-0.1-0.2-0.2-0.3-0.3c-0.2-0.2-0.3-0.2-0.5,0c-0.1,0.1-0.1,0.3,0,0.5
		c0.2,0.2,0.4,0.4,0.5,0.5c0.2,0.2,0.4,0.2,0.6-0.1c0.3-0.4,0.5-0.8,0.8-1.2c0.2-0.2,0.3-0.5,0.5-0.7c0.1-0.2,0.1-0.3-0.1-0.4
		c-0.1-0.1-0.3-0.1-0.4,0.1c0,0-0.1,0.1-0.1,0.2C657.2,49.5,656.9,50,656.5,50.5z M656.6,44C656.6,44,656.5,44,656.6,44
		c-0.1-0.1-0.2-0.2-0.4-0.3c-0.2-0.1-0.3-0.2-0.5,0c-0.1,0.1-0.1,0.3,0,0.5c0.2,0.2,0.4,0.4,0.6,0.6c0.2,0.2,0.4,0.2,0.6-0.1
		c0.2-0.3,0.4-0.7,0.7-1c0.2-0.3,0.4-0.6,0.6-0.9c0.1-0.1,0.1-0.3,0-0.4c-0.1-0.1-0.2-0.2-0.4-0.1c-0.1,0-0.2,0.1-0.2,0.2
		C657.2,43,656.9,43.5,656.6,44z M660.6,46.2c-0.5,0-0.9,0-1.4,0c-0.2,0-0.4,0.1-0.4,0.3c0,0.2,0.1,0.3,0.4,0.3c0.9,0,1.8,0,2.8,0
		c0.2,0,0.4-0.1,0.4-0.3c0-0.2-0.1-0.3-0.4-0.3C661.5,46.2,661.1,46.2,660.6,46.2z M660.6,43c-0.5,0-0.9,0-1.4,0
		c-0.1,0-0.2,0-0.2,0.1c-0.1,0.1-0.2,0.2-0.1,0.3c0.1,0.2,0.2,0.2,0.4,0.2c0.9,0,1.8,0,2.8,0c0.2,0,0.4-0.1,0.4-0.3
		c0-0.2-0.1-0.3-0.4-0.3C661.5,43,661.1,43,660.6,43z M660.6,50c0.5,0,0.9,0,1.4,0c0.3,0,0.4-0.1,0.4-0.3c0-0.2-0.1-0.3-0.4-0.3
		c-0.9,0-1.8,0-2.7,0c-0.2,0-0.4,0.1-0.4,0.3c0,0.2,0.1,0.3,0.4,0.3C659.7,50,660.1,50,660.6,50z M660.1,50.7c-0.3,0-0.6,0-0.9,0
		c-0.2,0-0.4,0.1-0.4,0.3c0,0.2,0.1,0.3,0.4,0.3c0.6,0,1.2,0,1.7,0c0.2,0,0.4-0.1,0.4-0.3c0-0.2-0.1-0.3-0.4-0.3
		C660.7,50.7,660.4,50.7,660.1,50.7z M660.1,44.3c-0.3,0-0.6,0-0.9,0c-0.2,0-0.4,0.1-0.4,0.3c0,0.2,0.1,0.3,0.4,0.3
		c0.6,0,1.2,0,1.8,0c0.2,0,0.4-0.1,0.3-0.3c0-0.2-0.1-0.3-0.4-0.3C660.7,44.3,660.4,44.3,660.1,44.3z M660.1,48.1c0.3,0,0.6,0,0.9,0
		c0.2,0,0.4-0.1,0.4-0.3c0-0.2-0.1-0.3-0.4-0.3c-0.6,0-1.2,0-1.8,0c-0.2,0-0.4,0.1-0.4,0.3c0,0.2,0.1,0.3,0.4,0.3
		C659.5,48.1,659.8,48.1,660.1,48.1z"/>
	<path class="st3" d="M653.7,41.7c0,1.1,0,2.1,0,3.2c-2,0-4,0-5.9,0c0,0,0-0.1,0-0.1c0.3-0.9,0.6-1.7,0.9-2.6
		c0.1-0.3,0.3-0.5,0.7-0.5c1.4,0,2.9,0,4.3,0C653.6,41.7,653.7,41.7,653.7,41.7z"/>
	<path class="st3" d="M660.8,40.1c0,0.2,0,0.4,0,0.6c-1.1,0-2.1,0-3.2,0c0-0.2,0-0.4,0-0.6c0,0,0,0,0,0c0.3,0,0.6-0.1,0.8-0.3
		c0.3-0.4,1.3-0.4,1.6,0.1c0.2,0.2,0.3,0.3,0.6,0.3C660.7,40.1,660.7,40.1,660.8,40.1z"/>
	<path class="st3" d="M649.9,47.8c0-0.4,0.2-0.6,0.6-0.6c0.4,0,0.7,0,1.1,0c0.6,0,1.3,0,1.9,0c0.1,0,0.1,0,0.2,0c0,0.2,0,0.4,0,0.6
		C652.5,47.8,651.2,47.8,649.9,47.8z"/>
	<path class="st3" d="M648.6,51.6c0,0.2,0,0.4,0,0.7c0,0.2-0.1,0.3-0.3,0.3c-0.4,0-0.8,0-1.3,0c-0.2,0-0.3-0.1-0.3-0.3
		c0-0.2,0-0.4,0-0.6C647.3,51.6,647.9,51.6,648.6,51.6z"/>
	<path class="st3" d="M648,47.5c0,0.1,0,0.2,0,0.3c0,0.2-0.1,0.3-0.3,0.3c-0.2,0-0.3-0.1-0.3-0.3c0-0.2,0-0.5,0-0.7
		c0-0.2,0.2-0.3,0.3-0.3c0.2,0,0.3,0.1,0.3,0.3C648,47.2,648,47.3,648,47.5C648,47.5,648,47.5,648,47.5z"/>
</g>
<text transform="matrix(1 0 0 1 686.8138 111.2306)" style="fill:#999593; font-family:'HelveticaNeue-Bold'; font-size:12px;">Km Kayıtları</text>
<g>
	<path class="st3" d="M665.3,107.5c0,0.4,0,0.9,0,1.3c0,0.1,0,0.1,0,0.2c-0.1,0.7-0.2,1.4-0.4,2.1c-0.1,0.3-0.2,0.3-0.4,0.3
		c-6.3,0-12.5,0-18.8,0c-0.3,0-0.4-0.1-0.4-0.3c-0.5-1.7-0.6-3.4-0.2-5.2c1.3-5.5,6.7-8.9,12.2-7.7c4,0.9,7.2,4.2,7.8,8.2
		C665.2,106.8,665.2,107.2,665.3,107.5z M659.9,103C659.8,103,659.8,103,659.9,103c-0.1-0.1-0.1-0.1-0.2-0.1
		c-1.2-1.1-2.7-1.7-4.3-1.7c-2.5-0.1-4.5,0.8-6,2.8c-1.2,1.5-1.6,3.3-1.4,5.2c0,0.2,0.2,0.3,0.4,0.3c0.2,0,0.3-0.2,0.3-0.4
		c-0.1-0.7-0.1-1.4,0.1-2.2c0.9-4.5,6-6.6,9.9-4.1c0.3,0.2,0.5,0.4,0.8,0.6c-0.1,0.1-0.1,0.1-0.2,0.1c-0.7,0.5-1.4,1-2.1,1.5
		c-0.9,0.6-1.7,1.2-2.6,1.8c-0.4,0.3-0.6,0.7-0.5,1.2c0.1,0.5,0.5,0.9,1,1c0.5,0.1,0.8-0.1,1.1-0.4c1.3-1.4,2.6-2.8,3.9-4.1
		c0-0.1,0.1-0.1,0.1-0.2c1.1,1.5,1.5,3.1,1.3,4.8c0,0.2,0.1,0.4,0.3,0.4c0.2,0,0.3-0.1,0.4-0.3c0.2-1.9-0.2-3.6-1.3-5.2
		c0-0.1-0.1-0.1-0.1-0.2c0.3-0.3,0.5-0.5,0.7-0.8c0.2-0.2,0.2-0.3,0-0.6c-0.2-0.2-0.3-0.2-0.6-0.1
		C660.5,102.6,660.2,102.8,659.9,103z"/>
	<path class="st3" d="M659.4,104.2c-0.3,0.3-0.6,0.7-1,1c-0.9,1-1.9,2-2.8,3c-0.3,0.3-0.6,0.3-0.8,0.1c-0.3-0.3-0.3-0.7,0-1
		c0.8-0.6,1.6-1.1,2.4-1.7c0.6-0.4,1.3-0.9,1.9-1.3C659.2,104.2,659.3,104.2,659.4,104.2C659.4,104.1,659.4,104.2,659.4,104.2z"/>
</g>
<text transform="matrix(1 0 0 1 686.8138 141.8772)" style="fill:#999593; font-family:'HelveticaNeue-Bold'; font-size:12px;">Lastik Kayıtları</text>
<g>
	<path class="st3" d="M654.5,126.7c0.3,0,0.6,0,1,0c0.1,0,0.2,0,0.3,0c1.3,0.1,2.6,0.6,3.7,1.3c1.9,1.3,3.1,3.1,3.5,5.4
		c0.1,0.3,0.1,0.6,0.1,0.9c0,0.3,0,0.6,0,1c0,0.3-0.1,0.5-0.1,0.8c-0.3,1.7-1,3.2-2.2,4.4c-1.8,1.8-4.1,2.7-6.6,2.4
		c-1.6-0.1-3-0.7-4.3-1.8c-2.2-1.9-3.3-4.3-3-7.2c0.1-1.3,0.6-2.6,1.3-3.7c1.3-1.9,3.1-3.1,5.4-3.5
		C653.9,126.7,654.2,126.7,654.5,126.7z M649.7,134.8c0,2.9,2.4,5.3,5.3,5.3c2.9,0,5.3-2.3,5.3-5.3c0-2.9-2.3-5.3-5.3-5.3
		C652.1,129.6,649.8,131.9,649.7,134.8z"/>
	<path class="st3" d="M652,131.8c0.5-0.5,1.2-0.9,1.9-1.1c0.2,0.3,0.3,0.6,0.4,0.9c0.1,0.3,0.3,0.4,0.6,0.4c0.2,0,0.4,0.1,0.5,0
		c0.1-0.1,0.2-0.3,0.3-0.5c0.1-0.3,0.3-0.5,0.4-0.8c0.7,0.2,1.4,0.6,1.9,1.1c-0.2,0.3-0.4,0.6-0.6,0.9c-0.2,0.2-0.2,0.4,0,0.6
		c0.1,0.1,0.2,0.4,0.3,0.5c0.1,0.1,0.4,0,0.5,0c0.2,0,0.5,0,0.7,0c0.1,0,0.1,0,0.2,0.1c0.1,0.7,0.1,1.3,0,2c0,0.1-0.1,0.1-0.2,0.1
		c-0.4,0-0.8,0-1.2-0.1c-0.1,0-0.1,0-0.2,0.1c-0.1,0.2-0.2,0.4-0.3,0.6c-0.1,0.1-0.1,0.2,0,0.3c0.2,0.3,0.5,0.7,0.7,1.1
		c-0.5,0.5-1.2,0.9-1.9,1.1c-0.2-0.3-0.3-0.6-0.4-0.9c-0.1-0.3-0.3-0.4-0.6-0.4c-0.2,0-0.4-0.1-0.5,0c-0.1,0.1-0.2,0.3-0.3,0.5
		c-0.1,0.3-0.3,0.5-0.4,0.8c-0.7-0.2-1.4-0.6-1.9-1.1c0.2-0.3,0.4-0.6,0.6-0.9c0.2-0.2,0.2-0.4,0-0.6c-0.1-0.1-0.2-0.4-0.3-0.5
		c-0.1-0.1-0.4,0-0.5,0c-0.2,0-0.5,0-0.7,0c-0.1,0-0.1,0-0.2-0.1c-0.1-0.7-0.1-1.3,0-2c0-0.1,0.1-0.1,0.2-0.1c0.4,0,0.8,0,1.2,0.1
		c0.1,0,0.1,0,0.2-0.1c0.1-0.2,0.2-0.4,0.3-0.6c0.1-0.1,0.1-0.2,0-0.3C652.4,132.5,652.2,132.2,652,131.8z M655,136.3
		c0.8,0,1.4-0.6,1.5-1.4c0-0.8-0.6-1.4-1.4-1.5c-0.8,0-1.4,0.6-1.5,1.4C653.6,135.6,654.2,136.3,655,136.3z"/>
	<path class="st3" d="M655.5,134.9c0,0.3-0.2,0.5-0.5,0.5c-0.3,0-0.5-0.2-0.5-0.5c0-0.3,0.2-0.5,0.5-0.5
		C655.3,134.4,655.5,134.6,655.5,134.9z"/>
</g>
<g>
	<path class="st3" d="M399.3,54.6c0-6,0-12.1,0-18.1c0.2-0.5,0.5-0.9,1.1-1c2.6,0,5.2,0,7.8,0c0,1.6,0,3.3,0,4.9
		c0,0.8,0.5,1.4,1.4,1.4c1.6,0,3.1,0,4.7,0c0.1,0,0.1,0,0.2,0c0,0.1,0,0.1,0,0.1c0,4.2,0,8.3,0,12.5c0,0.7-0.6,1.2-1.3,1.2
		c-4.2,0-8.4,0-12.6,0c-0.6,0-1-0.3-1.2-0.9C399.3,54.7,399.3,54.6,399.3,54.6z M411.9,53.1c0-2.9,0-5.9,0-8.8c-0.8,0-1.7,0-2.5,0
		c0,2.9,0,5.9,0,8.8C410.2,53.1,411,53.1,411.9,53.1z M408.1,53.1c0-2.1,0-4.2,0-6.3c-0.8,0-1.7,0-2.5,0c0,2.1,0,4.2,0,6.3
		C406.4,53.1,407.2,53.1,408.1,53.1z M404.3,53.1c0-1.3,0-2.5,0-3.8c-0.8,0-1.7,0-2.5,0c0,1.3,0,2.5,0,3.8
		C402.6,53.1,403.5,53.1,404.3,53.1z"/>
	<path class="st3" d="M409.4,35.4c0,0.1,0.1,0.1,0.1,0.2c1.6,1.6,3.1,3.1,4.7,4.7c0,0,0.1,0.1,0.2,0.2c-1.7,0-3.3,0-5,0
		C409.3,38.8,409.3,37.1,409.4,35.4C409.4,35.4,409.4,35.4,409.4,35.4z"/>
</g>
<rect x="881.2" y="-216.3" class="st0" width="194.6" height="829.7"/>
<g>
	<text transform="matrix(1 0 0 1 935.076 -105.7538)" class="st2" style="font-family:'HelveticaNeue-Bold'; font-size:13px;">ANA SAYFA</text>
</g>
<line class="st1" x1="881.2" y1="-138.5" x2="1075.8" y2="-138.5"/>
<line class="st1" x1="881.2" y1="-85" x2="1075.8" y2="-85"/>
<text transform="matrix(1 0 0 1 935.076 -52.224)" class="st3" style="font-family:'HelveticaNeue-Bold'; font-size:13px;">ARAÇLARIM</text>
<line class="st1" x1="881.2" y1="-85" x2="1075.8" y2="-85"/>
<line class="st1" x1="881.2" y1="-31.4" x2="1075.8" y2="-31.4"/>
<line class="st1" x1="881.2" y1="-31.4" x2="1075.8" y2="-31.4"/>
<text transform="matrix(1 0 0 1 935.076 248.439)" class="st3" style="font-family:'HelveticaNeue-Bold'; font-size:13px;">RAPORLAR</text>
<line class="st1" x1="881.2" y1="215.7" x2="1075.8" y2="215.7"/>
<line class="st1" x1="881.2" y1="269.2" x2="1075.8" y2="269.2"/>
<line class="st1" x1="881.2" y1="415" x2="1075.8" y2="415"/>
<text transform="matrix(1 0 0 1 935.076 447.771)" class="st3" style="font-family:'HelveticaNeue-Bold'; font-size:13px;">KULLANICI PANELİ</text>
<line class="st1" x1="881.2" y1="415" x2="1075.8" y2="415"/>
<line class="st1" x1="881.2" y1="468.6" x2="1075.8" y2="468.6"/>
<text transform="matrix(1 0 0 1 935.076 501.3009)" class="st3" style="font-family:'HelveticaNeue-Bold'; font-size:13px;">AYARLAR</text>
<line class="st1" x1="881.2" y1="468.6" x2="1075.8" y2="468.6"/>
<line class="st1" x1="881.2" y1="522.1" x2="1075.8" y2="522.1"/>
<text transform="matrix(1 0 0 1 935.076 554.8306)" class="st3" style="font-family:'HelveticaNeue-Bold'; font-size:13px;">MENÜYÜ DARALT</text>
<line class="st1" x1="881.2" y1="522.1" x2="1075.8" y2="522.1"/>
<line class="st1" x1="881.2" y1="575.6" x2="1075.8" y2="575.6"/>
<g>
	<path class="st2" d="M909.4-105.8c-1.6,0-3.1,0-4.7,0c0-0.1,0-0.2,0-0.3c0-1.4,0-2.9,0-4.3c0-0.1,0-0.2,0-0.2c-1,0-2,0-3.1,0
		c0,0.1,0,0.2,0,0.3c0,1.3,0,2.5,0,3.8c0,0.3,0,0.5,0,0.8c-1.6,0-3.1,0-4.7,0c-0.5-0.2-0.7-0.4-0.7-1c0-1.9,0-3.8,0-5.7
		c0-0.1,0-0.2,0.1-0.3c1.8-1.5,3.5-3.1,5.3-4.6c0.5-0.4,1-0.8,1.5-1.3c0.1,0.1,0.1,0.1,0.2,0.1c2.2,1.9,4.4,3.8,6.6,5.7
		c0.1,0.1,0.1,0.2,0.1,0.3c0,1.9,0,3.8,0,5.7C910.1-106.2,909.9-106,909.4-105.8z"/>
	<path class="st2" d="M912.8-113.7c-0.2,0.3-0.5,0.6-0.7,0.9c-0.2,0.3-0.4,0.3-0.7,0.1c-2.7-2.3-5.3-4.7-8-7
		c-0.1-0.1-0.1-0.1-0.2-0.2c-0.3,0.3-0.6,0.5-0.9,0.8c-2.4,2.1-4.8,4.3-7.3,6.4c-0.3,0.2-0.5,0.2-0.7-0.1c-0.2-0.2-0.4-0.5-0.6-0.7
		c-0.2-0.3-0.2-0.5,0.1-0.7c2.1-1.9,4.2-3.7,6.4-5.6c0.7-0.6,1.4-1.2,2.1-1.8c0.5-0.4,1-0.5,1.6-0.2c0.2,0.1,0.3,0.2,0.4,0.3
		c0.9,0.8,1.7,1.5,2.6,2.3c0,0,0.1,0.1,0.2,0.1c0-0.1,0-0.2,0-0.2c0-0.7,0-1.4,0-2.1c0-0.4,0.1-0.5,0.5-0.5c0.7,0,1.4,0,2,0
		c0.4,0,0.5,0.1,0.5,0.5c0,1.6,0,3.2,0,4.8c0,0.1,0,0.2,0.1,0.3c0.8,0.7,1.6,1.4,2.3,2.1c0.1,0.1,0.2,0.2,0.3,0.3
		C912.8-113.9,912.8-113.8,912.8-113.7z"/>
</g>
<g>
	<path class="st3" d="M903.8,431.5c0.2,0,0.4,0.1,0.6,0.1c1.4,0.3,2.7,1.7,2.9,3.2c0.1,1,0,1.9-0.6,2.7c-0.7,1.1-1.7,1.7-3.1,1.8
		c-1.7,0.1-3.2-0.9-3.8-2.3c-0.6-1.3-0.4-3.1,0.6-4.1c0.6-0.7,1.3-1.1,2.2-1.3c0.1,0,0.3-0.1,0.5-0.1
		C903.3,431.5,903.5,431.5,903.8,431.5z"/>
	<path class="st3" d="M903.5,447.8c-1.3,0-2.6,0-3.9,0c-0.7,0-1.3-0.1-1.8-0.5c-0.6-0.4-1-1-1-1.8c-0.1-1.4,0-2.7,0.6-4
		c0.3-0.7,0.7-1.4,1.5-1.8c0.5-0.3,1-0.4,1.5-0.4c0.2,0,0.3,0.1,0.5,0.2c0.2,0.1,0.5,0.3,0.7,0.4c1.4,0.8,2.7,0.8,4.1,0
		c0.2-0.1,0.4-0.2,0.6-0.4c0.3-0.2,0.7-0.3,1.1-0.2c1.1,0.2,1.8,0.7,2.3,1.7c0.4,0.8,0.7,1.7,0.7,2.6c0,0.5,0.1,0.9,0.1,1.4
		c0,1.4-1,2.5-2.4,2.6c-0.2,0-0.3,0-0.5,0C906,447.8,904.8,447.8,903.5,447.8z"/>
</g>
<g>
	<path class="st3" d="M904.8-52.2c-0.5-0.1-1-0.4-1.3-0.9c-0.1-0.2-0.2-0.3-0.2-0.5c0-0.2-0.1-0.3-0.3-0.3c-0.8,0-1.5,0-2.3,0
		c-2,0-4,0-6.1,0c-0.2,0-0.3,0-0.3,0.3c-0.2,0.7-0.6,1.1-1.3,1.3c-0.1,0-0.1,0-0.2,0.1c-0.2,0-0.3,0-0.5,0c0,0,0,0,0,0
		c-0.6-0.1-1-0.5-1.3-1c0-0.1-0.1-0.1-0.2-0.1c-0.2,0-0.5,0-0.8,0c0-0.2,0-0.3,0-0.4c-0.1,0-0.1,0-0.1,0c0,0-0.1,0-0.1,0
		c0-1.1-0.1-2.2,0.4-3.2c0.1-0.1,0.1-0.3,0.2-0.4c0.6-0.7,1.2-1.3,1.8-2c0.3-0.3,0.6-0.5,1-0.5c2.3-0.2,4.6-0.2,7,0
		c0.7,0.1,1.4,0.3,1.9,0.8c0.5,0.4,1,0.9,1.5,1.3c0.1,0.1,0.2,0.2,0.4,0.2c1.2,0.3,2.4,0.6,3.6,0.9c0.4,0.1,0.6,0.2,0.7,0.6
		c0.1,0.2,0.1,0.5,0.3,0.7c0.3,0.2,0.3,0.5,0.2,0.8c0,0.2-0.1,0.3-0.1,0.5c0,0.2,0,0.5-0.4,0.4c0,0.2,0,0.3,0,0.4
		c-0.5,0-0.9,0-1.3,0c-0.1,0-0.2,0-0.3,0.2c-0.1,0.2-0.2,0.4-0.4,0.5c-0.3,0.2-0.6,0.3-0.9,0.5C905.1-52.2,905-52.2,904.8-52.2z
		 M893.4-59.3c-0.1,0-0.1,0-0.2,0.1c-0.4,0.5-0.8,1-1.2,1.5c1.4,0,2.9,0,4.3,0c0-0.6,0-1.1,0-1.7C895.4-59.4,894.4-59.3,893.4-59.3z
		 M897.5-57.9c0,0.1,0,0.1,0,0.2c1.4,0,2.8,0,4.3,0c-0.1-0.1-0.2-0.2-0.3-0.3c-0.3-0.3-0.5-0.7-0.8-1c-0.1-0.1-0.1-0.1-0.2-0.2
		c-1-0.1-2-0.1-3-0.2C897.5-58.9,897.5-58.4,897.5-57.9z M891.9-54c0,0.3,0.3,0.6,0.6,0.6c0.3,0,0.7-0.3,0.6-0.7
		c0-0.3-0.3-0.6-0.6-0.6C892.3-54.6,891.9-54.3,891.9-54z M905-53.3c0.3,0,0.7-0.3,0.6-0.7c0-0.3-0.3-0.6-0.6-0.6
		c-0.3,0-0.7,0.3-0.6,0.7C904.4-53.6,904.7-53.3,905-53.3z"/>
	<path class="st3" d="M916.7-57.9c-0.5,0-1.1,0-1.6,0c-0.3,0-0.5,0-0.8,0c0,0,0,0.1,0,0.1c0.1,0,0.1,0.1,0.2,0.1c0.3,0,0.7,0,1,0
		c0.3,0,0.6,0,0.8,0c0,0.3,0,0.6,0,0.9c-0.6,0-1.2,0-1.8,0c-0.2,0-0.3,0.1-0.3,0.2c-0.4,0.9-1,1.4-2,1.4c-0.9,0.1-1.6-0.3-2-1.1
		c-0.2-0.5-0.5-0.6-1-0.6c0,0-0.1,0-0.1,0c-0.2,0-0.3,0-0.3-0.2c0-0.2-0.1-0.4-0.4-0.4c0,0-0.1-0.1-0.2-0.2c0.5,0,1,0,1.4,0
		c0.2,0,0.2,0,0.2-0.2c-0.5,0-1,0-1.6,0c0-2.8,0-5.6,0-8.4c0,0,0.1,0,0.1,0c1.6,0,3.1,0,4.7,0c0.1,0,0.2,0.1,0.2,0.1
		c1,1.2,1.9,2.4,2.8,3.7c0.1,0.1,0.1,0.2,0.1,0.4c0,0.6,0,1.2,0,1.8c0,0.4,0.1,0.7,0.5,1C916.7-58.9,916.7-58.4,916.7-57.9z
		 M909.1-62.7c0,0.1,0,0.1,0,0.2c1.9,0,3.7,0,5.6,0c0-0.1,0-0.1-0.1-0.2c-0.6-0.9-1.2-1.7-1.8-2.6c-0.1-0.1-0.2-0.1-0.2-0.1
		c-1.1,0-2.2,0-3.3,0c0,0-0.1,0-0.1,0C909.1-64.5,909.1-63.6,909.1-62.7z M913.1-57.4c0-0.6-0.5-1.1-1.1-1.1c-0.6,0-1.1,0.5-1.1,1.1
		c0,0.6,0.5,1.1,1.1,1.1C912.6-56.3,913.1-56.8,913.1-57.4z"/>
	<path class="st3" d="M908-57.5c0-0.1,0-0.2,0-0.3c0-2.7,0-5.4,0-8.2c0-0.1,0.1-0.3-0.2-0.4c0,0,0-0.1,0-0.2c0-0.6,0-1.3,0-1.9
		c-5.8,0-11.6,0-17.4,0c0,3.2,0,6.3,0,9.5c0.1-0.1,0.1-0.1,0.2-0.1c0.3-0.4,0.6-0.7,0.9-1.1c0.4-0.4,0.8-0.7,1.4-0.7
		c2.3-0.2,4.7-0.2,7,0c1.1,0.1,2.1,0.5,2.9,1.3c0.2,0.2,0.4,0.3,0.6,0.5c0.4,0.4,0.9,0.6,1.4,0.7C905.8-58.1,906.9-57.8,908-57.5z"
		/>
</g>
<path class="st3" d="M911.7,492.2c0,0.6,0,1.2,0,1.8c0,0,0,0,0,0.1c-0.1,0.5-0.4,0.7-0.9,0.8c-0.4,0.1-0.7,0.1-1.1,0.1
	c-0.1,0-0.2,0.1-0.2,0.2c-0.1,0.2-0.2,0.4-0.3,0.6c-0.1,0.1-0.1,0.2,0,0.3c0.2,0.3,0.4,0.6,0.7,0.9c0.4,0.5,0.3,1-0.1,1.4
	c-0.3,0.3-0.7,0.7-1,1c-0.4,0.4-0.9,0.4-1.4,0.1c-0.3-0.2-0.6-0.5-0.9-0.7c-0.1-0.1-0.1-0.1-0.2,0c-0.2,0.1-0.5,0.2-0.7,0.3
	c-0.1,0-0.1,0.1-0.1,0.2c0,0.3-0.1,0.6-0.1,0.9c0,0.3-0.1,0.5-0.2,0.8c-0.2,0.2-0.4,0.4-0.7,0.4c-0.6,0-1.2,0-1.8,0c0,0,0,0-0.1,0
	c-0.5-0.1-0.7-0.4-0.8-0.9c-0.1-0.4-0.1-0.7-0.1-1.1c0-0.1-0.1-0.2-0.2-0.2c-0.2-0.1-0.5-0.2-0.7-0.3c-0.1,0-0.1,0-0.2,0
	c-0.3,0.2-0.6,0.5-0.9,0.7c-0.5,0.4-1,0.3-1.4-0.1c-0.3-0.3-0.7-0.7-1-1c-0.4-0.4-0.4-0.9-0.1-1.4c0.2-0.3,0.5-0.6,0.7-0.9
	c0,0,0-0.1,0-0.2c-0.1-0.2-0.2-0.5-0.3-0.7c0-0.1-0.1-0.1-0.2-0.1c-0.4-0.1-0.7-0.1-1.1-0.1c-0.6-0.1-1-0.5-1-1.1c0-0.5,0-1,0-1.5
	c0-0.5,0.3-0.9,0.8-1c0.4-0.1,0.8-0.1,1.2-0.2c0.1,0,0.2-0.1,0.2-0.2c0.1-0.2,0.2-0.4,0.3-0.6c0.1-0.1,0-0.2,0-0.3
	c-0.2-0.3-0.4-0.5-0.6-0.8c-0.4-0.5-0.3-1,0.1-1.4c0.3-0.3,0.7-0.7,1-1c0.4-0.4,0.9-0.5,1.4-0.1c0.3,0.2,0.6,0.5,0.9,0.7
	c0,0,0.1,0,0.2,0c0.3-0.1,0.5-0.2,0.7-0.3c0.1,0,0.1-0.1,0.1-0.2c0.1-0.4,0.1-0.7,0.1-1.1c0.1-0.6,0.5-1,1.1-1c0.5,0,1,0,1.5,0
	c0.5,0,0.9,0.3,1,0.8c0.1,0.4,0.1,0.8,0.2,1.2c0,0.1,0.1,0.2,0.2,0.2c0.2,0.1,0.5,0.2,0.7,0.3c0.1,0,0.1,0,0.2,0
	c0.3-0.2,0.6-0.5,0.9-0.7c0.5-0.4,1-0.3,1.4,0.1c0.3,0.3,0.7,0.7,1,1c0.4,0.4,0.4,0.9,0.1,1.4c-0.2,0.3-0.5,0.6-0.7,0.9
	c0,0,0,0.1,0,0.2c0.1,0.2,0.2,0.5,0.3,0.7c0,0.1,0.1,0.1,0.2,0.1c0.4,0.1,0.7,0.1,1.1,0.1c0.3,0,0.6,0.2,0.8,0.4
	C911.6,492,911.6,492.1,911.7,492.2z M903.4,496.6c1.8,0.1,3.4-1.4,3.5-3.3c0.1-1.8-1.4-3.4-3.3-3.5c-1.8-0.1-3.4,1.4-3.5,3.3
	C900.1,494.9,901.5,496.5,903.4,496.6z"/>
<g>
	<path class="st3" d="M893,539.7c0,0,0-0.1,0.1-0.1c0.2-0.6,0.7-1,1.4-1c0.9,0,1.8,0,2.7,0c5.2,0,10.4,0,15.6,0
		c0.9,0,1.5,0.6,1.5,1.4c0,0.7-0.6,1.3-1.3,1.4c-0.1,0-0.2,0-0.3,0c-5.9,0-11.9,0-17.8,0c-0.9,0-1.5-0.3-1.8-1.2
		C893,540.1,893,539.9,893,539.7z"/>
	<path class="st3" d="M893.4,546.5c0,0,0-0.1,0.1-0.1c0.2-0.6,0.7-1,1.3-1c0.9,0,1.7,0,2.6,0c5,0,9.9,0,14.9,0
		c0.8,0,1.4,0.6,1.4,1.4c0,0.7-0.6,1.3-1.3,1.3c-0.1,0-0.2,0-0.3,0c-5.7,0-11.3,0-17,0c-0.8,0-1.4-0.3-1.7-1.1
		C893.4,546.8,893.4,546.6,893.4,546.5z"/>
	<path class="st3" d="M893.4,553.2c0,0,0-0.1,0.1-0.1c0.2-0.6,0.7-1,1.3-1c0.8,0,1.7,0,2.5,0c5,0,10,0,15,0c0.7,0,1.2,0.4,1.4,1
		c0.2,0.7-0.2,1.4-0.9,1.6c-0.1,0-0.1,0-0.2,0.1c-6,0-12,0-18,0c-0.3-0.1-0.7-0.2-0.9-0.6c-0.1-0.2-0.2-0.4-0.3-0.5
		C893.4,553.6,893.4,553.4,893.4,553.2z"/>
</g>
<g>
	<g>
		<g>
			<path class="st4" d="M971.6-189.8v20.2h-5.4v-20.2H971.6z"/>
			<path class="st4" d="M999.5-170.1c-0.8,0.4-2.7,0.8-5.1,0.8c-7.6,0-10.9-4.7-10.9-10.1c0-7.1,5.2-10.8,11.3-10.8
				c2.3,0,4.2,0.4,5.1,0.9l-1.1,4.3c-0.9-0.4-2.1-0.7-3.7-0.7c-3.1,0-5.8,1.8-5.8,6c0,3.7,2.2,6,5.9,6c1.3,0,2.8-0.3,3.6-0.6
				L999.5-170.1z"/>
			<path class="st4" d="M1024.1-177.8h-7.3v3.7h8.1v4.4h-13.6v-20.2h13.1v4.4h-7.7v3.3h7.3V-177.8z"/>
		</g>
	</g>
	<g>
		<g>
			<path class="st5" d="M964.3-161.7l-0.4,1.3H963l1.5-4.7h1.1l1.5,4.7h-0.9l-0.4-1.3H964.3z M965.6-162.3l-0.4-1.2
				c-0.1-0.3-0.2-0.6-0.2-0.9h0c-0.1,0.3-0.1,0.6-0.2,0.9l-0.4,1.2H965.6z"/>
			<path class="st5" d="M967.8-162.7c0-0.5,0-0.8,0-1.1h0.7l0,0.6h0c0.2-0.5,0.6-0.7,0.9-0.7c0.1,0,0.1,0,0.2,0v0.8
				c-0.1,0-0.1,0-0.3,0c-0.4,0-0.7,0.3-0.8,0.7c0,0.1,0,0.2,0,0.3v1.8h-0.9V-162.7z"/>
			<path class="st5" d="M972.2-160.4l-0.1-0.4h0c-0.2,0.3-0.6,0.5-1,0.5c-0.7,0-1.1-0.5-1.1-1c0-0.9,0.8-1.3,2-1.3v-0.1
				c0-0.2-0.1-0.6-0.7-0.6c-0.3,0-0.7,0.1-0.9,0.3l-0.2-0.6c0.3-0.2,0.7-0.3,1.2-0.3c1.1,0,1.4,0.7,1.4,1.4v1.2c0,0.3,0,0.6,0.1,0.8
				H972.2z M972.1-162c-0.6,0-1.2,0.1-1.2,0.6c0,0.3,0.2,0.5,0.5,0.5c0.3,0,0.6-0.2,0.7-0.5c0-0.1,0-0.1,0-0.2V-162z"/>
			<path class="st5" d="M976.3-160.5c-0.2,0.1-0.5,0.2-1,0.2c-1.1,0-1.8-0.7-1.8-1.7c0-1,0.7-1.8,1.9-1.8c0.3,0,0.6,0.1,0.8,0.2
				l-0.2,0.6c-0.1-0.1-0.3-0.1-0.7-0.1c-0.7,0-1,0.5-1,1.1c0,0.7,0.5,1.1,1,1.1c0.3,0,0.5-0.1,0.7-0.1L976.3-160.5z M975.5-160.4
				l-0.2,0.4c0.3,0,0.5,0.2,0.5,0.5c0,0.4-0.4,0.6-0.8,0.6c-0.2,0-0.4-0.1-0.5-0.1l0.1-0.4c0.1,0.1,0.3,0.1,0.4,0.1
				c0.1,0,0.3-0.1,0.3-0.2c0-0.2-0.2-0.2-0.5-0.3l0.3-0.6H975.5z"/>
			<path class="st5" d="M979.5-160.4v-2l-1.5-2.8h1l0.6,1.2c0.2,0.3,0.3,0.6,0.4,0.9h0c0.1-0.3,0.3-0.6,0.4-0.9l0.6-1.2h1l-1.6,2.7
				v2H979.5z"/>
			<path class="st5" d="M985.7-162.1c0,1.3-0.9,1.8-1.8,1.8c-1,0-1.7-0.7-1.7-1.8c0-1.1,0.7-1.8,1.8-1.8
				C985-163.8,985.7-163.1,985.7-162.1z M982.8-164.7c0-0.2,0.2-0.4,0.4-0.4c0.2,0,0.4,0.2,0.4,0.4c0,0.2-0.2,0.4-0.4,0.4
				C983-164.3,982.8-164.5,982.8-164.7z M983.1-162.1c0,0.7,0.3,1.2,0.8,1.2c0.5,0,0.8-0.5,0.8-1.2c0-0.5-0.2-1.1-0.8-1.1
				C983.3-163.2,983.1-162.6,983.1-162.1z M984.2-164.7c0-0.2,0.2-0.4,0.4-0.4c0.2,0,0.4,0.2,0.4,0.4c0,0.2-0.2,0.4-0.4,0.4
				C984.4-164.3,984.2-164.5,984.2-164.7z"/>
			<path class="st5" d="M986.4-162.7c0-0.4,0-0.7,0-1h0.8l0,0.5h0c0.2-0.3,0.5-0.6,1.1-0.6c0.6,0,1.2,0.4,1.2,1.5v2h-0.9v-1.9
				c0-0.5-0.2-0.9-0.7-0.9c-0.3,0-0.6,0.2-0.7,0.5c0,0.1,0,0.2,0,0.3v2h-0.9V-162.7z"/>
			<path class="st5" d="M991-161.8c0,0.6,0.5,0.9,1.1,0.9c0.4,0,0.7-0.1,0.9-0.2l0.1,0.6c-0.3,0.1-0.7,0.2-1.2,0.2
				c-1.1,0-1.8-0.7-1.8-1.7c0-0.9,0.6-1.8,1.7-1.8c1.1,0,1.5,0.9,1.5,1.7c0,0.2,0,0.3,0,0.4H991z M992.5-162.4
				c0-0.3-0.1-0.8-0.7-0.8c-0.5,0-0.8,0.5-0.8,0.8H992.5z"/>
			<path class="st5" d="M995-164.7v1h0.8v0.6H995v1.5c0,0.4,0.1,0.6,0.4,0.6c0.1,0,0.3,0,0.3,0l0,0.7c-0.1,0-0.4,0.1-0.6,0.1
				c-0.3,0-0.6-0.1-0.7-0.3c-0.2-0.2-0.3-0.5-0.3-1v-1.6h-0.5v-0.6h0.5v-0.8L995-164.7z"/>
			<path class="st5" d="M997.4-164.7c0,0.3-0.2,0.5-0.5,0.5c-0.3,0-0.5-0.2-0.5-0.5c0-0.3,0.2-0.5,0.5-0.5
				C997.2-165.2,997.4-165,997.4-164.7z M996.4-160.4v-3.4h0.9v3.4H996.4z"/>
			<path class="st5" d="M998.2-162.7c0-0.4,0-0.7,0-1h0.7l0,0.5h0c0.2-0.3,0.5-0.6,1-0.6c0.5,0,0.8,0.3,0.9,0.6h0
				c0.1-0.2,0.3-0.3,0.4-0.4c0.2-0.1,0.4-0.2,0.7-0.2c0.6,0,1.1,0.4,1.1,1.5v2h-0.8v-1.9c0-0.6-0.2-0.9-0.6-0.9
				c-0.3,0-0.5,0.2-0.6,0.5c0,0.1,0,0.2,0,0.3v2h-0.8v-2c0-0.5-0.2-0.8-0.6-0.8c-0.3,0-0.5,0.3-0.6,0.5c0,0.1,0,0.2,0,0.3v2h-0.8
				V-162.7z"/>
			<path class="st5" d="M1005.6-161.3c0.3,0.2,0.7,0.3,1.1,0.3c0.6,0,0.9-0.3,0.9-0.6c0-0.4-0.2-0.6-0.8-0.8
				c-0.8-0.3-1.3-0.7-1.3-1.4c0-0.8,0.6-1.4,1.7-1.4c0.5,0,0.9,0.1,1.1,0.2l-0.2,0.7c-0.2-0.1-0.5-0.2-0.9-0.2
				c-0.5,0-0.8,0.3-0.8,0.6c0,0.4,0.3,0.5,0.9,0.8c0.8,0.3,1.2,0.7,1.2,1.4c0,0.8-0.6,1.4-1.8,1.4c-0.5,0-1-0.1-1.3-0.3
				L1005.6-161.3z"/>
			<path class="st5" d="M1010.2-164.7c0,0.3-0.2,0.5-0.5,0.5c-0.3,0-0.5-0.2-0.5-0.5c0-0.3,0.2-0.5,0.5-0.5
				C1010-165.2,1010.2-165,1010.2-164.7z M1009.3-160.4v-3.4h0.9v3.4H1009.3z"/>
			<path class="st5" d="M1011-161.1c0.2,0.1,0.6,0.2,0.9,0.2c0.4,0,0.5-0.2,0.5-0.4c0-0.2-0.1-0.3-0.6-0.5c-0.7-0.2-0.9-0.6-0.9-1
				c0-0.6,0.5-1.1,1.3-1.1c0.4,0,0.7,0.1,0.9,0.2l-0.2,0.6c-0.1-0.1-0.4-0.2-0.7-0.2c-0.3,0-0.5,0.2-0.5,0.4c0,0.2,0.2,0.3,0.6,0.5
				c0.6,0.2,0.9,0.5,0.9,1c0,0.6-0.5,1.1-1.4,1.1c-0.4,0-0.8-0.1-1-0.2L1011-161.1z"/>
			<path class="st5" d="M1014.9-164.7v1h0.8v0.6h-0.8v1.5c0,0.4,0.1,0.6,0.4,0.6c0.1,0,0.3,0,0.3,0l0,0.7c-0.1,0-0.4,0.1-0.6,0.1
				c-0.3,0-0.6-0.1-0.7-0.3c-0.2-0.2-0.3-0.5-0.3-1v-1.6h-0.5v-0.6h0.5v-0.8L1014.9-164.7z"/>
			<path class="st5" d="M1017-161.8c0,0.6,0.5,0.9,1.1,0.9c0.4,0,0.7-0.1,0.9-0.2l0.1,0.6c-0.3,0.1-0.7,0.2-1.2,0.2
				c-1.1,0-1.8-0.7-1.8-1.7c0-0.9,0.6-1.8,1.7-1.8c1.1,0,1.5,0.9,1.5,1.7c0,0.2,0,0.3,0,0.4H1017z M1018.5-162.4
				c0-0.3-0.1-0.8-0.7-0.8c-0.5,0-0.8,0.5-0.8,0.8H1018.5z"/>
			<path class="st5" d="M1020-162.7c0-0.4,0-0.7,0-1h0.7l0,0.5h0c0.2-0.3,0.5-0.6,1-0.6c0.5,0,0.8,0.3,0.9,0.6h0
				c0.1-0.2,0.3-0.3,0.4-0.4c0.2-0.1,0.4-0.2,0.7-0.2c0.6,0,1.1,0.4,1.1,1.5v2h-0.8v-1.9c0-0.6-0.2-0.9-0.6-0.9
				c-0.3,0-0.5,0.2-0.6,0.5c0,0.1,0,0.2,0,0.3v2h-0.8v-2c0-0.5-0.2-0.8-0.6-0.8c-0.3,0-0.5,0.3-0.6,0.5c0,0.1,0,0.2,0,0.3v2h-0.8
				V-162.7z"/>
			<path class="st5" d="M1026.9-164.7c0,0.3-0.2,0.5-0.5,0.5c-0.3,0-0.5-0.2-0.5-0.5c0-0.3,0.2-0.5,0.5-0.5
				C1026.7-165.2,1026.9-165,1026.9-164.7z M1026-160.4v-3.4h0.9v3.4H1026z"/>
		</g>
	</g>
	<g>
		<polygon class="st5" points="931.1,-189 931.1,-179.7 940.6,-184.3 950.1,-189 940.6,-193.6 931.1,-198.2 		"/>
		<polygon class="st4" points="931.1,-189 931.1,-179.7 921.6,-184.3 912.1,-189 921.6,-193.6 931.1,-198.2 		"/>
		<polygon class="st5" points="931.1,-154.9 912.1,-164.1 912.1,-189 931.1,-179.7 		"/>
		<polygon class="st4" points="931.1,-154.9 950.1,-164.1 950.1,-189 931.1,-179.7 		"/>
	</g>
</g>
<path class="st3" d="M1049.8-58.5h-3.6c-0.3,0-0.4,0.3-0.2,0.5l1.7,1.8l1.9,2.1c0.1,0.1,0.3,0.1,0.4,0l1.9-2.1l1.7-1.8
	c0.2-0.2,0-0.5-0.2-0.5H1049.8z"/>
<g>
	<path class="st3" d="M895.6,248.2c0-6,0-12.1,0-18.1c0.2-0.5,0.5-0.9,1.1-1c2.6,0,5.2,0,7.8,0c0,1.6,0,3.3,0,4.9
		c0,0.8,0.5,1.4,1.4,1.4c1.6,0,3.1,0,4.7,0c0.1,0,0.1,0,0.2,0c0,0.1,0,0.1,0,0.1c0,4.2,0,8.3,0,12.5c0,0.7-0.6,1.2-1.3,1.2
		c-4.2,0-8.4,0-12.6,0c-0.6,0-1-0.3-1.2-0.9C895.7,248.3,895.7,248.2,895.6,248.2z M908.2,246.7c0-2.9,0-5.9,0-8.8
		c-0.8,0-1.7,0-2.5,0c0,2.9,0,5.9,0,8.8C906.6,246.7,907.4,246.7,908.2,246.7z M904.4,246.7c0-2.1,0-4.2,0-6.3c-0.8,0-1.7,0-2.5,0
		c0,2.1,0,4.2,0,6.3C902.8,246.7,903.6,246.7,904.4,246.7z M900.7,246.7c0-1.3,0-2.5,0-3.8c-0.8,0-1.7,0-2.5,0c0,1.3,0,2.5,0,3.8
		C899,246.7,899.8,246.7,900.7,246.7z"/>
	<path class="st3" d="M905.8,229.1c0,0.1,0.1,0.1,0.1,0.2c1.6,1.6,3.1,3.1,4.7,4.7c0,0,0.1,0.1,0.2,0.2c-1.7,0-3.3,0-5,0
		C905.7,232.4,905.7,230.7,905.8,229.1C905.7,229.1,905.7,229.1,905.8,229.1z"/>
</g>
<rect x="881.2" y="-30.9" class="st6" width="194.6" height="246"/>
<text transform="matrix(1 0 0 1 935.076 1.3059)" class="st3" style="font-family:'HelveticaNeue-Bold'; font-size:13px;">AKARYAKIT</text>
<path class="st3" d="M899-15c2.4,0,4.7,0,7.1,0c0.1,0,0.3,0.1,0.4,0.1c0.5,0.3,0.8,0.7,0.8,1.3c0,2.8,0,5.7,0,8.5c0,0.1,0,0.1,0,0.2
	c0.1,0,0.1,0,0.2,0c0.8,0,1.2,0.4,1.2,1.2c0,0.2,0,0.4,0,0.6c0,0.2,0.1,0.3,0.3,0.3c0.2,0,0.3-0.1,0.3-0.2c0-0.1,0-0.1,0-0.2
	c0-1.8,0-3.6,0-5.4c0-0.1,0-0.1,0-0.2c-0.1,0-0.1,0-0.2,0c-0.6-0.1-1.2-0.6-1.2-1.2c0-0.4,0-0.7,0-1.1c0-0.1,0.1-0.2,0.2-0.3
	c0.3-0.3,0.5-0.5,0.8-0.8c0.1-0.1,0.2-0.1,0.3-0.2c-0.3-0.3-0.6-0.6-0.9-0.9c-0.1-0.1-0.2-0.2-0.3-0.3c-0.1-0.1-0.1-0.3,0-0.4
	c0.1-0.1,0.3-0.1,0.4,0c0.1,0,0.1,0.1,0.2,0.1c0.4,0.4,0.8,0.8,1.1,1.1c0.2,0.2,0.2,0.3,0.2,0.5c0,3.1,0,6.1,0,9.2
	c0,0.1,0,0.2,0,0.3c0,0.5-0.5,0.9-1,0.9c-0.5,0-1-0.4-1-0.9c0-0.3,0-0.5,0-0.8c0-0.3-0.1-0.4-0.4-0.4c-0.1,0-0.2,0-0.3,0
	c0,0.9,0,1.8,0,2.7c0,0,0.1,0,0.1,0c0.6,0,1.2,0.6,1.2,1.2c0,0.3,0,0.7,0,1c0,0.4-0.1,0.5-0.5,0.5c-3.7,0-7.5,0-11.2,0
	c0,0-0.1,0-0.1,0c-0.2,0-0.3-0.1-0.4-0.3c0-0.4,0-0.8,0-1.1c0-0.4,0.2-0.7,0.5-0.9c0.2-0.2,0.5-0.3,0.9-0.3c0-0.1,0-0.2,0-0.2
	c0-3.9,0-7.9,0-11.8c0-0.4,0.1-0.8,0.4-1.1C898.4-14.8,898.7-14.9,899-15z M902.5-8.9c1,0,2,0,3,0c0.3,0,0.4-0.1,0.4-0.4
	c0-1.3,0-2.6,0-3.9c0-0.3-0.1-0.4-0.4-0.4c-2,0-3.9,0-5.9,0c-0.3,0-0.4,0.1-0.4,0.4c0,1.3,0,2.6,0,3.9c0,0.3,0.1,0.4,0.4,0.4
	C900.6-8.9,901.5-8.9,902.5-8.9z"/>
<path class="st3" d="M899,29.8c2.4,0,4.7,0,7.1,0c0.1,0,0.3,0.1,0.4,0.1c0.5,0.3,0.8,0.7,0.8,1.3c0,2.8,0,5.7,0,8.5
	c0,0.1,0,0.1,0,0.2c0.1,0,0.1,0,0.2,0c0.8,0,1.2,0.4,1.2,1.2c0,0.2,0,0.4,0,0.6c0,0.2,0.1,0.3,0.3,0.3c0.2,0,0.3-0.1,0.3-0.2
	c0-0.1,0-0.1,0-0.2c0-1.8,0-3.6,0-5.4c0-0.1,0-0.1,0-0.2c-0.1,0-0.1,0-0.2,0c-0.6-0.1-1.2-0.6-1.2-1.2c0-0.4,0-0.7,0-1.1
	c0-0.1,0.1-0.2,0.2-0.3c0.3-0.3,0.5-0.5,0.8-0.8c0.1-0.1,0.2-0.1,0.3-0.2c-0.3-0.3-0.6-0.6-0.9-0.9c-0.1-0.1-0.2-0.2-0.3-0.3
	c-0.1-0.1-0.1-0.3,0-0.4c0.1-0.1,0.3-0.1,0.4,0c0.1,0,0.1,0.1,0.2,0.1c0.4,0.4,0.8,0.8,1.1,1.1c0.2,0.2,0.2,0.3,0.2,0.5
	c0,3.1,0,6.1,0,9.2c0,0.1,0,0.2,0,0.3c0,0.5-0.5,0.9-1,0.9c-0.5,0-1-0.4-1-0.9c0-0.3,0-0.5,0-0.8c0-0.3-0.1-0.4-0.4-0.4
	c-0.1,0-0.2,0-0.3,0c0,0.9,0,1.8,0,2.7c0,0,0.1,0,0.1,0c0.6,0,1.2,0.6,1.2,1.2c0,0.3,0,0.7,0,1c0,0.4-0.1,0.5-0.5,0.5
	c-3.7,0-7.5,0-11.2,0c0,0-0.1,0-0.1,0c-0.2,0-0.3-0.1-0.4-0.3c0-0.4,0-0.8,0-1.1c0-0.4,0.2-0.7,0.5-0.9c0.2-0.2,0.5-0.3,0.9-0.3
	c0-0.1,0-0.2,0-0.2c0-3.9,0-7.9,0-11.8c0-0.4,0.1-0.8,0.4-1.1C898.4,30,898.7,29.9,899,29.8z M902.5,35.9c1,0,2,0,3,0
	c0.3,0,0.4-0.1,0.4-0.4c0-1.3,0-2.6,0-3.9c0-0.3-0.1-0.4-0.4-0.4c-2,0-3.9,0-5.9,0c-0.3,0-0.4,0.1-0.4,0.4c0,1.3,0,2.6,0,3.9
	c0,0.3,0.1,0.4,0.4,0.4C900.6,35.9,901.5,35.9,902.5,35.9z"/>
<path class="st3" d="M1049.8-0.1l3.6,0c0.3,0,0.4-0.3,0.2-0.5l-1.7-1.8l-1.9-2.1c-0.1-0.1-0.3-0.1-0.4,0l-1.9,2.1l-1.7,1.8
	c-0.2,0.2,0,0.5,0.2,0.5L1049.8-0.1z"/>
<text transform="matrix(1 0 0 1 935.0963 45.2363)" style="fill:#999593; font-family:'HelveticaNeue-Bold'; font-size:12px;">Akaryakıt Depom</text>
<path class="st3" d="M899,59.9c2.4,0,4.7,0,7.1,0c0.1,0,0.3,0.1,0.4,0.1c0.5,0.3,0.8,0.7,0.8,1.3c0,2.8,0,5.7,0,8.5
	c0,0.1,0,0.1,0,0.2c0.1,0,0.1,0,0.2,0c0.8,0,1.2,0.4,1.2,1.2c0,0.2,0,0.4,0,0.6c0,0.2,0.1,0.3,0.3,0.3c0.2,0,0.3-0.1,0.3-0.2
	c0-0.1,0-0.1,0-0.2c0-1.8,0-3.6,0-5.4c0-0.1,0-0.1,0-0.2c-0.1,0-0.1,0-0.2,0c-0.6-0.1-1.2-0.6-1.2-1.2c0-0.4,0-0.7,0-1.1
	c0-0.1,0.1-0.2,0.2-0.3c0.3-0.3,0.5-0.5,0.8-0.8c0.1-0.1,0.2-0.1,0.3-0.2c-0.3-0.3-0.6-0.6-0.9-0.9c-0.1-0.1-0.2-0.2-0.3-0.3
	c-0.1-0.1-0.1-0.3,0-0.4c0.1-0.1,0.3-0.1,0.4,0c0.1,0,0.1,0.1,0.2,0.1c0.4,0.4,0.8,0.8,1.1,1.1c0.2,0.2,0.2,0.3,0.2,0.5
	c0,3.1,0,6.1,0,9.2c0,0.1,0,0.2,0,0.3c0,0.5-0.5,0.9-1,0.9c-0.5,0-1-0.4-1-0.9c0-0.3,0-0.5,0-0.8c0-0.3-0.1-0.4-0.4-0.4
	c-0.1,0-0.2,0-0.3,0c0,0.9,0,1.8,0,2.7c0,0,0.1,0,0.1,0c0.6,0,1.2,0.6,1.2,1.2c0,0.3,0,0.7,0,1c0,0.4-0.1,0.5-0.5,0.5
	c-3.7,0-7.5,0-11.2,0c0,0-0.1,0-0.1,0c-0.2,0-0.3-0.1-0.4-0.3c0-0.4,0-0.8,0-1.1c0-0.4,0.2-0.7,0.5-0.9c0.2-0.2,0.5-0.3,0.9-0.3
	c0-0.1,0-0.2,0-0.2c0-3.9,0-7.9,0-11.8c0-0.4,0.1-0.8,0.4-1.1C898.4,60.1,898.7,60,899,59.9z M902.5,66.1c1,0,2,0,3,0
	c0.3,0,0.4-0.1,0.4-0.4c0-1.3,0-2.6,0-3.9c0-0.3-0.1-0.4-0.4-0.4c-2,0-3.9,0-5.9,0c-0.3,0-0.4,0.1-0.4,0.4c0,1.3,0,2.6,0,3.9
	c0,0.3,0.1,0.4,0.4,0.4C900.6,66.1,901.5,66.1,902.5,66.1z"/>
<text transform="matrix(1 0 0 1 935.0963 75.3587)" style="fill:#999593; font-family:'HelveticaNeue-Bold'; font-size:12px;">Yakıt Deposu Ekle</text>
<path class="st3" d="M899,88.4c2.4,0,4.7,0,7.1,0c0.1,0,0.3,0.1,0.4,0.1c0.5,0.3,0.8,0.7,0.8,1.3c0,2.8,0,5.7,0,8.5
	c0,0.1,0,0.1,0,0.2c0.1,0,0.1,0,0.2,0c0.8,0,1.2,0.4,1.2,1.2c0,0.2,0,0.4,0,0.6c0,0.2,0.1,0.3,0.3,0.3c0.2,0,0.3-0.1,0.3-0.2
	c0-0.1,0-0.1,0-0.2c0-1.8,0-3.6,0-5.4c0-0.1,0-0.1,0-0.2c-0.1,0-0.1,0-0.2,0c-0.6-0.1-1.2-0.6-1.2-1.2c0-0.4,0-0.7,0-1.1
	c0-0.1,0.1-0.2,0.2-0.3c0.3-0.3,0.5-0.5,0.8-0.8c0.1-0.1,0.2-0.1,0.3-0.2c-0.3-0.3-0.6-0.6-0.9-0.9c-0.1-0.1-0.2-0.2-0.3-0.3
	c-0.1-0.1-0.1-0.3,0-0.4c0.1-0.1,0.3-0.1,0.4,0c0.1,0,0.1,0.1,0.2,0.1c0.4,0.4,0.8,0.8,1.1,1.1c0.2,0.2,0.2,0.3,0.2,0.5
	c0,3.1,0,6.1,0,9.2c0,0.1,0,0.2,0,0.3c0,0.5-0.5,0.9-1,0.9c-0.5,0-1-0.4-1-0.9c0-0.3,0-0.5,0-0.8c0-0.3-0.1-0.4-0.4-0.4
	c-0.1,0-0.2,0-0.3,0c0,0.9,0,1.8,0,2.7c0,0,0.1,0,0.1,0c0.6,0,1.2,0.6,1.2,1.2c0,0.3,0,0.7,0,1c0,0.4-0.1,0.5-0.5,0.5
	c-3.7,0-7.5,0-11.2,0c0,0-0.1,0-0.1,0c-0.2,0-0.3-0.1-0.4-0.3c0-0.4,0-0.8,0-1.1c0-0.4,0.2-0.7,0.5-0.9c0.2-0.2,0.5-0.3,0.9-0.3
	c0-0.1,0-0.2,0-0.2c0-3.9,0-7.9,0-11.8c0-0.4,0.1-0.8,0.4-1.1C898.4,88.6,898.7,88.4,899,88.4z M902.5,94.5c1,0,2,0,3,0
	c0.3,0,0.4-0.1,0.4-0.4c0-1.3,0-2.6,0-3.9c0-0.3-0.1-0.4-0.4-0.4c-2,0-3.9,0-5.9,0c-0.3,0-0.4,0.1-0.4,0.4c0,1.3,0,2.6,0,3.9
	c0,0.3,0.1,0.4,0.4,0.4C900.6,94.5,901.5,94.5,902.5,94.5z"/>
<text transform="matrix(1 0 0 1 935.0963 103.7793)" style="fill:#999593; font-family:'HelveticaNeue-Bold'; font-size:12px;">Depo Yakıt Girişi</text>
<path class="st3" d="M899,118.5c2.4,0,4.7,0,7.1,0c0.1,0,0.3,0.1,0.4,0.1c0.5,0.3,0.8,0.7,0.8,1.3c0,2.8,0,5.7,0,8.5
	c0,0.1,0,0.1,0,0.2c0.1,0,0.1,0,0.2,0c0.8,0,1.2,0.4,1.2,1.2c0,0.2,0,0.4,0,0.6c0,0.2,0.1,0.3,0.3,0.3c0.2,0,0.3-0.1,0.3-0.2
	c0-0.1,0-0.1,0-0.2c0-1.8,0-3.6,0-5.4c0-0.1,0-0.1,0-0.2c-0.1,0-0.1,0-0.2,0c-0.6-0.1-1.2-0.6-1.2-1.2c0-0.4,0-0.7,0-1.1
	c0-0.1,0.1-0.2,0.2-0.3c0.3-0.3,0.5-0.5,0.8-0.8c0.1-0.1,0.2-0.1,0.3-0.2c-0.3-0.3-0.6-0.6-0.9-0.9c-0.1-0.1-0.2-0.2-0.3-0.3
	c-0.1-0.1-0.1-0.3,0-0.4c0.1-0.1,0.3-0.1,0.4,0c0.1,0,0.1,0.1,0.2,0.1c0.4,0.4,0.8,0.8,1.1,1.1c0.2,0.2,0.2,0.3,0.2,0.5
	c0,3.1,0,6.1,0,9.2c0,0.1,0,0.2,0,0.3c0,0.5-0.5,0.9-1,0.9c-0.5,0-1-0.4-1-0.9c0-0.3,0-0.5,0-0.8c0-0.3-0.1-0.4-0.4-0.4
	c-0.1,0-0.2,0-0.3,0c0,0.9,0,1.8,0,2.7c0,0,0.1,0,0.1,0c0.6,0,1.2,0.6,1.2,1.2c0,0.3,0,0.7,0,1c0,0.4-0.1,0.5-0.5,0.5
	c-3.7,0-7.5,0-11.2,0c0,0-0.1,0-0.1,0c-0.2,0-0.3-0.1-0.4-0.3c0-0.4,0-0.8,0-1.1c0-0.4,0.2-0.7,0.5-0.9c0.2-0.2,0.5-0.3,0.9-0.3
	c0-0.1,0-0.2,0-0.2c0-3.9,0-7.9,0-11.8c0-0.4,0.1-0.8,0.4-1.1C898.4,118.6,898.7,118.5,899,118.5z M902.5,124.6c1,0,2,0,3,0
	c0.3,0,0.4-0.1,0.4-0.4c0-1.3,0-2.6,0-3.9c0-0.3-0.1-0.4-0.4-0.4c-2,0-3.9,0-5.9,0c-0.3,0-0.4,0.1-0.4,0.4c0,1.3,0,2.6,0,3.9
	c0,0.3,0.1,0.4,0.4,0.4C900.6,124.6,901.5,124.6,902.5,124.6z"/>
<text transform="matrix(1 0 0 1 935.0963 133.8718)" style="fill:#999593; font-family:'HelveticaNeue-Bold'; font-size:12px;">Araç Yakıt Girişi</text>
<path class="st3" d="M899,148.1c2.4,0,4.7,0,7.1,0c0.1,0,0.3,0.1,0.4,0.1c0.5,0.3,0.8,0.7,0.8,1.3c0,2.8,0,5.7,0,8.5
	c0,0.1,0,0.1,0,0.2c0.1,0,0.1,0,0.2,0c0.8,0,1.2,0.4,1.2,1.2c0,0.2,0,0.4,0,0.6c0,0.2,0.1,0.3,0.3,0.3c0.2,0,0.3-0.1,0.3-0.2
	c0-0.1,0-0.1,0-0.2c0-1.8,0-3.6,0-5.4c0-0.1,0-0.1,0-0.2c-0.1,0-0.1,0-0.2,0c-0.6-0.1-1.2-0.6-1.2-1.2c0-0.4,0-0.7,0-1.1
	c0-0.1,0.1-0.2,0.2-0.3c0.3-0.3,0.5-0.5,0.8-0.8c0.1-0.1,0.2-0.1,0.3-0.2c-0.3-0.3-0.6-0.6-0.9-0.9c-0.1-0.1-0.2-0.2-0.3-0.3
	c-0.1-0.1-0.1-0.3,0-0.4c0.1-0.1,0.3-0.1,0.4,0c0.1,0,0.1,0.1,0.2,0.1c0.4,0.4,0.8,0.8,1.1,1.1c0.2,0.2,0.2,0.3,0.2,0.5
	c0,3.1,0,6.1,0,9.2c0,0.1,0,0.2,0,0.3c0,0.5-0.5,0.9-1,0.9c-0.5,0-1-0.4-1-0.9c0-0.3,0-0.5,0-0.8c0-0.3-0.1-0.4-0.4-0.4
	c-0.1,0-0.2,0-0.3,0c0,0.9,0,1.8,0,2.7c0,0,0.1,0,0.1,0c0.6,0,1.2,0.6,1.2,1.2c0,0.3,0,0.7,0,1c0,0.4-0.1,0.5-0.5,0.5
	c-3.7,0-7.5,0-11.2,0c0,0-0.1,0-0.1,0c-0.2,0-0.3-0.1-0.4-0.3c0-0.4,0-0.8,0-1.1c0-0.4,0.2-0.7,0.5-0.9c0.2-0.2,0.5-0.3,0.9-0.3
	c0-0.1,0-0.2,0-0.2c0-3.9,0-7.9,0-11.8c0-0.4,0.1-0.8,0.4-1.1C898.4,148.2,898.7,148.1,899,148.1z M902.5,154.2c1,0,2,0,3,0
	c0.3,0,0.4-0.1,0.4-0.4c0-1.3,0-2.6,0-3.9c0-0.3-0.1-0.4-0.4-0.4c-2,0-3.9,0-5.9,0c-0.3,0-0.4,0.1-0.4,0.4c0,1.3,0,2.6,0,3.9
	c0,0.3,0.1,0.4,0.4,0.4C900.6,154.2,901.5,154.2,902.5,154.2z"/>
<text transform="matrix(1 0 0 1 935.0963 163.4702)" style="fill:#999593; font-family:'HelveticaNeue-Bold'; font-size:12px;">Akaryakıt Kayıtları </text>
<path class="st3" d="M899,178.8c2.4,0,4.7,0,7.1,0c0.1,0,0.3,0.1,0.4,0.1c0.5,0.3,0.8,0.7,0.8,1.3c0,2.8,0,5.7,0,8.5
	c0,0.1,0,0.1,0,0.2c0.1,0,0.1,0,0.2,0c0.8,0,1.2,0.4,1.2,1.2c0,0.2,0,0.4,0,0.6c0,0.2,0.1,0.3,0.3,0.3c0.2,0,0.3-0.1,0.3-0.2
	c0-0.1,0-0.1,0-0.2c0-1.8,0-3.6,0-5.4c0-0.1,0-0.1,0-0.2c-0.1,0-0.1,0-0.2,0c-0.6-0.1-1.2-0.6-1.2-1.2c0-0.4,0-0.7,0-1.1
	c0-0.1,0.1-0.2,0.2-0.3c0.3-0.3,0.5-0.5,0.8-0.8c0.1-0.1,0.2-0.1,0.3-0.2c-0.3-0.3-0.6-0.6-0.9-0.9c-0.1-0.1-0.2-0.2-0.3-0.3
	c-0.1-0.1-0.1-0.3,0-0.4c0.1-0.1,0.3-0.1,0.4,0c0.1,0,0.1,0.1,0.2,0.1c0.4,0.4,0.8,0.8,1.1,1.1c0.2,0.2,0.2,0.3,0.2,0.5
	c0,3.1,0,6.1,0,9.2c0,0.1,0,0.2,0,0.3c0,0.5-0.5,0.9-1,0.9c-0.5,0-1-0.4-1-0.9c0-0.3,0-0.5,0-0.8c0-0.3-0.1-0.4-0.4-0.4
	c-0.1,0-0.2,0-0.3,0c0,0.9,0,1.8,0,2.7c0,0,0.1,0,0.1,0c0.6,0,1.2,0.6,1.2,1.2c0,0.3,0,0.7,0,1c0,0.4-0.1,0.5-0.5,0.5
	c-3.7,0-7.5,0-11.2,0c0,0-0.1,0-0.1,0c-0.2,0-0.3-0.1-0.4-0.3c0-0.4,0-0.8,0-1.1c0-0.4,0.2-0.7,0.5-0.9c0.2-0.2,0.5-0.3,0.9-0.3
	c0-0.1,0-0.2,0-0.2c0-3.9,0-7.9,0-11.8c0-0.4,0.1-0.8,0.4-1.1C898.4,179,898.7,178.9,899,178.8z M902.5,184.9c1,0,2,0,3,0
	c0.3,0,0.4-0.1,0.4-0.4c0-1.3,0-2.6,0-3.9c0-0.3-0.1-0.4-0.4-0.4c-2,0-3.9,0-5.9,0c-0.3,0-0.4,0.1-0.4,0.4c0,1.3,0,2.6,0,3.9
	c0,0.3,0.1,0.4,0.4,0.4C900.6,184.9,901.5,184.9,902.5,184.9z"/>
<text transform="matrix(1 0 0 1 935.0963 194.2171)" style="fill:#999593; font-family:'HelveticaNeue-Bold'; font-size:12px;">Sayaçsız Yakıt Çıkışları</text>
<g>
	<g>
		<path class="st4" d="M43.2,36.8v66.7H25.4V36.8H43.2z"/>
		<path class="st4" d="M135.1,101.8c-2.5,1.2-8.8,2.7-16.8,2.7c-25,0-35.9-15.5-35.9-33.3c0-23.5,17.2-35.5,37.1-35.5
			c7.7,0,13.9,1.4,16.7,3l-3.5,14c-2.9-1.2-7-2.4-12.3-2.4c-10.3,0-19.1,6.1-19.1,19.7c0,12.1,7.2,19.6,19.5,19.6
			c4.3,0,9.2-0.8,11.9-1.9L135.1,101.8z"/>
		<path class="st4" d="M216.3,76.6h-24v12.3h26.8v14.6h-44.6V36.8h43.3v14.6h-25.4v10.8h24V76.6z"/>
	</g>
	<g>
		<path class="st5" d="M19.3,129.6l-1.3,4.4H15l5-15.5h3.6l5,15.5h-3l-1.4-4.4H19.3z M23.7,127.5l-1.2-3.8c-0.3-1-0.6-2-0.8-2.9
			h-0.1c-0.2,0.9-0.5,2-0.7,2.9l-1.2,3.8H23.7z"/>
		<path class="st5" d="M30.6,126.4c0-1.5,0-2.6-0.1-3.6H33l0.1,2.1h0.1c0.6-1.6,1.9-2.4,3.1-2.4c0.3,0,0.4,0,0.7,0.1v2.7
			c-0.2-0.1-0.5-0.1-0.8-0.1c-1.4,0-2.3,0.9-2.5,2.1c0,0.3-0.1,0.6-0.1,0.9v5.8h-2.8V126.4z"/>
		<path class="st5" d="M44.9,134l-0.2-1.3h-0.1c-0.7,0.9-1.9,1.5-3.3,1.5c-2.3,0-3.5-1.6-3.5-3.3c0-2.8,2.5-4.3,6.7-4.2v-0.2
			c0-0.7-0.3-2-2.3-2c-1.1,0-2.3,0.4-3,0.8l-0.6-1.8c0.8-0.5,2.3-1,4.1-1c3.6,0,4.6,2.3,4.6,4.7v4c0,1,0.1,2,0.2,2.7H44.9z
			 M44.5,128.5c-2,0-3.9,0.4-3.9,2.1c0,1.1,0.7,1.6,1.6,1.6c1.1,0,1.9-0.7,2.2-1.6c0.1-0.2,0.1-0.4,0.1-0.6V128.5z"/>
		<path class="st5" d="M58.6,133.7c-0.6,0.3-1.8,0.6-3.2,0.6c-3.5,0-5.8-2.3-5.8-5.7c0-3.4,2.3-6,6.2-6c1,0,2.1,0.2,2.7,0.5
			l-0.5,2.1c-0.5-0.2-1.1-0.4-2.1-0.4c-2.2,0-3.4,1.6-3.4,3.6c0,2.3,1.5,3.6,3.4,3.6c1,0,1.7-0.2,2.2-0.4L58.6,133.7z M56,133.9
			l-0.7,1.2c0.9,0.1,1.6,0.7,1.6,1.6c0,1.4-1.2,1.9-2.6,1.9c-0.7,0-1.3-0.2-1.7-0.4l0.4-1.2c0.4,0.2,0.9,0.4,1.3,0.4
			c0.5,0,0.9-0.2,0.9-0.7c0-0.5-0.6-0.8-1.8-0.9l1-2H56z"/>
		<path class="st5" d="M68.1,134v-6.5l-4.9-9.1h3.2l1.9,4c0.5,1.1,0.9,2,1.4,3.1h0c0.4-1,0.8-2,1.3-3.1l1.9-4h3.2l-5.2,9v6.5H68.1z"
			/>
		<path class="st5" d="M86.7,128.3c0,4.1-2.9,6-5.8,6c-3.2,0-5.6-2.2-5.6-5.8c0-3.7,2.4-5.9,5.8-5.9
			C84.5,122.5,86.7,124.9,86.7,128.3z M77.3,119.6c0-0.8,0.6-1.4,1.4-1.4c0.8,0,1.4,0.6,1.4,1.4c0,0.8-0.6,1.4-1.4,1.4
			C77.9,121,77.3,120.4,77.3,119.6z M78.3,128.4c0,2.2,1.1,3.8,2.8,3.8c1.6,0,2.8-1.6,2.8-3.8c0-1.8-0.8-3.8-2.7-3.8
			C79.1,124.6,78.3,126.5,78.3,128.4z M81.9,119.6c0-0.8,0.6-1.4,1.4-1.4c0.8,0,1.4,0.6,1.4,1.4c0,0.8-0.6,1.4-1.4,1.4
			C82.5,121,81.9,120.4,81.9,119.6z"/>
		<path class="st5" d="M89.1,126.1c0-1.3,0-2.4-0.1-3.3h2.5l0.1,1.7h0.1c0.5-0.9,1.7-1.9,3.6-1.9c2,0,4,1.3,4,4.8v6.7h-2.8v-6.3
			c0-1.6-0.6-2.8-2.1-2.8c-1.1,0-1.9,0.8-2.2,1.7c-0.1,0.2-0.1,0.6-0.1,0.9v6.6h-2.8V126.1z"/>
		<path class="st5" d="M104.3,129.2c0.1,2,1.6,2.9,3.5,2.9c1.3,0,2.2-0.2,3.1-0.5l0.4,2c-1,0.4-2.3,0.7-3.9,0.7
			c-3.6,0-5.8-2.3-5.8-5.7c0-3.1,1.9-6,5.5-6c3.6,0,4.8,3,4.8,5.5c0,0.5,0,1-0.1,1.2H104.3z M109.2,127.2c0-1-0.4-2.7-2.3-2.7
			c-1.7,0-2.5,1.6-2.6,2.7H109.2z"/>
		<path class="st5" d="M117.4,119.6v3.2h2.7v2.1h-2.7v5c0,1.4,0.4,2.1,1.5,2.1c0.5,0,0.8-0.1,1.1-0.1l0.1,2.2
			c-0.4,0.2-1.2,0.3-2.1,0.3c-1,0-1.9-0.4-2.4-0.9c-0.6-0.6-0.9-1.7-0.9-3.1v-5.3H113v-2.1h1.6v-2.5L117.4,119.6z"/>
		<path class="st5" d="M125.3,119.7c0,0.8-0.6,1.5-1.6,1.5c-0.9,0-1.6-0.7-1.6-1.5c0-0.9,0.6-1.5,1.6-1.5
			C124.6,118.1,125.3,118.8,125.3,119.7z M122.3,134v-11.2h2.8V134H122.3z"/>
		<path class="st5" d="M128.2,126.1c0-1.3,0-2.4-0.1-3.3h2.4l0.1,1.6h0.1c0.5-0.9,1.6-1.9,3.5-1.9c1.5,0,2.6,0.8,3.1,2.1h0
			c0.4-0.6,0.9-1.1,1.4-1.4c0.6-0.4,1.3-0.7,2.3-0.7c1.9,0,3.7,1.3,3.7,4.9v6.6h-2.8v-6.2c0-1.9-0.6-3-2-3c-1,0-1.7,0.7-2,1.5
			c-0.1,0.3-0.1,0.6-0.1,0.9v6.7h-2.8v-6.5c0-1.6-0.6-2.7-1.9-2.7c-1.1,0-1.8,0.8-2,1.6c-0.1,0.3-0.1,0.6-0.1,0.9v6.6h-2.8V126.1z"
			/>
		<path class="st5" d="M152.5,130.9c0.9,0.5,2.3,1,3.8,1c1.8,0,2.8-0.9,2.8-2.1c0-1.2-0.8-1.9-2.8-2.6c-2.6-0.9-4.2-2.3-4.2-4.5
			c0-2.5,2.1-4.5,5.5-4.5c1.7,0,2.9,0.4,3.7,0.8l-0.7,2.3c-0.6-0.3-1.6-0.7-3.1-0.7c-1.8,0-2.6,1-2.6,1.9c0,1.2,0.9,1.8,3,2.5
			c2.7,1,4,2.4,4,4.6c0,2.5-1.9,4.7-5.9,4.7c-1.6,0-3.4-0.5-4.2-1L152.5,130.9z"/>
		<path class="st5" d="M167.4,119.7c0,0.8-0.6,1.5-1.6,1.5c-0.9,0-1.6-0.7-1.6-1.5c0-0.9,0.6-1.5,1.6-1.5
			C166.8,118.1,167.4,118.8,167.4,119.7z M164.4,134v-11.2h2.8V134H164.4z"/>
		<path class="st5" d="M170.2,131.4c0.6,0.4,1.8,0.8,2.9,0.8c1.2,0,1.8-0.5,1.8-1.3c0-0.8-0.5-1.1-1.8-1.6c-2.2-0.8-3.1-1.9-3.1-3.3
			c0-2,1.6-3.5,4.3-3.5c1.2,0,2.3,0.3,3,0.7l-0.6,2c-0.5-0.3-1.4-0.6-2.4-0.6c-1,0-1.6,0.5-1.6,1.2c0,0.7,0.5,1.1,2,1.6
			c2,0.7,3,1.8,3,3.4c0,2-1.6,3.5-4.6,3.5c-1.4,0-2.6-0.3-3.4-0.8L170.2,131.4z"/>
		<path class="st5" d="M183.2,119.6v3.2h2.7v2.1h-2.7v5c0,1.4,0.4,2.1,1.5,2.1c0.5,0,0.8-0.1,1.1-0.1l0.1,2.2
			c-0.4,0.2-1.2,0.3-2.1,0.3c-1,0-1.9-0.4-2.4-0.9c-0.6-0.6-0.9-1.7-0.9-3.1v-5.3h-1.6v-2.1h1.6v-2.5L183.2,119.6z"/>
		<path class="st5" d="M189.9,129.2c0.1,2,1.6,2.9,3.5,2.9c1.3,0,2.2-0.2,3.1-0.5l0.4,2c-1,0.4-2.3,0.7-3.9,0.7
			c-3.6,0-5.8-2.3-5.8-5.7c0-3.1,1.9-6,5.5-6c3.6,0,4.8,3,4.8,5.5c0,0.5,0,1-0.1,1.2H189.9z M194.8,127.2c0-1-0.4-2.7-2.3-2.7
			c-1.7,0-2.5,1.6-2.6,2.7H194.8z"/>
		<path class="st5" d="M199.8,126.1c0-1.3,0-2.4-0.1-3.3h2.4l0.1,1.6h0.1c0.5-0.9,1.6-1.9,3.5-1.9c1.5,0,2.6,0.8,3.1,2.1h0
			c0.4-0.6,0.9-1.1,1.4-1.4c0.6-0.4,1.3-0.7,2.3-0.7c1.9,0,3.7,1.3,3.7,4.9v6.6h-2.8v-6.2c0-1.9-0.6-3-2-3c-1,0-1.7,0.7-2,1.5
			c-0.1,0.3-0.1,0.6-0.1,0.9v6.7h-2.8v-6.5c0-1.6-0.6-2.7-1.9-2.7c-1.1,0-1.8,0.8-2,1.6c-0.1,0.3-0.1,0.6-0.1,0.9v6.6h-2.8V126.1z"
			/>
		<path class="st5" d="M222.4,119.7c0,0.8-0.6,1.5-1.6,1.5c-0.9,0-1.6-0.7-1.6-1.5c0-0.9,0.6-1.5,1.6-1.5
			C221.8,118.1,222.4,118.8,222.4,119.7z M219.4,134v-11.2h2.8V134H219.4z"/>
	</g>
</g>
<g>
	<polygon class="st5" points="-108.7,46 -108.7,76.5 -77.4,61.2 -46.1,46 -77.4,30.7 -108.7,15.5 	"/>
	<polygon class="st4" points="-108.7,46 -108.7,76.5 -140,61.2 -171.3,46 -140,30.7 -108.7,15.5 	"/>
	<polygon class="st5" points="-108.7,158.3 -171.3,127.8 -171.3,46 -108.7,76.5 	"/>
	<polygon class="st4" points="-108.7,158.3 -46.1,127.8 -46.1,46 -108.7,76.5 	"/>
</g>
<g>
	<g>
		<path class="st4" d="M24.5-169.8v66.7H6.7v-66.7H24.5z"/>
		<path class="st4" d="M116.5-104.8c-2.5,1.2-8.8,2.7-16.8,2.7c-25,0-35.9-15.5-35.9-33.3c0-23.5,17.2-35.5,37.1-35.5
			c7.7,0,13.9,1.4,16.7,3l-3.5,14c-2.9-1.2-7-2.4-12.3-2.4c-10.3,0-19.1,6.1-19.1,19.7c0,12.1,7.2,19.6,19.5,19.6
			c4.3,0,9.2-0.8,11.9-1.9L116.5-104.8z"/>
		<path class="st4" d="M197.6-130h-24v12.3h26.8v14.6h-44.6v-66.7H199v14.6h-25.4v10.8h24V-130z"/>
	</g>
	<g>
		<path class="st5" d="M0.6-77l-1.3,4.4h-2.9l5-15.5h3.6l5,15.5h-3L5.5-77H0.6z M5-79.1L3.8-83c-0.3-1-0.6-2-0.8-2.9H3
			c-0.2,0.9-0.5,2-0.7,2.9L1-79.1H5z"/>
		<path class="st5" d="M11.9-80.2c0-1.5,0-2.6-0.1-3.6h2.5l0.1,2.1h0.1c0.6-1.6,1.9-2.4,3.1-2.4c0.3,0,0.4,0,0.7,0.1v2.7
			c-0.2-0.1-0.5-0.1-0.8-0.1c-1.4,0-2.3,0.9-2.5,2.1c0,0.3-0.1,0.6-0.1,0.9v5.8h-2.8V-80.2z"/>
		<path class="st5" d="M26.2-72.6L26-73.9H26c-0.7,0.9-1.9,1.5-3.3,1.5c-2.3,0-3.5-1.6-3.5-3.3c0-2.8,2.5-4.3,6.7-4.2v-0.2
			c0-0.7-0.3-2-2.3-2c-1.1,0-2.3,0.4-3,0.8l-0.6-1.8c0.8-0.5,2.3-1,4.1-1c3.6,0,4.6,2.3,4.6,4.7v4c0,1,0.1,2,0.2,2.7H26.2z
			 M25.9-78.1c-2,0-3.9,0.4-3.9,2.1c0,1.1,0.7,1.6,1.6,1.6c1.1,0,1.9-0.7,2.2-1.6c0.1-0.2,0.1-0.4,0.1-0.6V-78.1z"/>
		<path class="st5" d="M39.9-72.9c-0.6,0.3-1.8,0.6-3.2,0.6c-3.5,0-5.8-2.3-5.8-5.7c0-3.4,2.3-6,6.2-6c1,0,2.1,0.2,2.7,0.5l-0.5,2.1
			c-0.5-0.2-1.1-0.4-2.1-0.4c-2.2,0-3.4,1.6-3.4,3.6c0,2.3,1.5,3.6,3.4,3.6c1,0,1.7-0.2,2.2-0.4L39.9-72.9z M37.3-72.7l-0.7,1.2
			c0.9,0.1,1.6,0.7,1.6,1.6c0,1.4-1.2,1.9-2.6,1.9c-0.7,0-1.3-0.2-1.7-0.4l0.4-1.2c0.4,0.2,0.9,0.4,1.3,0.4c0.5,0,0.9-0.2,0.9-0.7
			c0-0.5-0.6-0.8-1.8-0.9l1-2H37.3z"/>
		<path class="st5" d="M49.4-72.6v-6.5l-4.9-9.1h3.2l1.9,4c0.5,1.1,0.9,2,1.4,3.1h0c0.4-1,0.8-2,1.3-3.1l1.9-4h3.2l-5.2,9v6.5H49.4z
			"/>
		<path class="st5" d="M68-78.3c0,4.1-2.9,6-5.8,6c-3.2,0-5.6-2.2-5.6-5.8c0-3.7,2.4-5.9,5.8-5.9C65.8-84.1,68-81.7,68-78.3z
			 M58.6-87c0-0.8,0.6-1.4,1.4-1.4c0.8,0,1.4,0.6,1.4,1.4c0,0.8-0.6,1.4-1.4,1.4C59.2-85.6,58.6-86.2,58.6-87z M59.6-78.2
			c0,2.2,1.1,3.8,2.8,3.8c1.6,0,2.8-1.6,2.8-3.8c0-1.8-0.8-3.8-2.7-3.8C60.4-82,59.6-80.1,59.6-78.2z M63.2-87
			c0-0.8,0.6-1.4,1.4-1.4c0.8,0,1.4,0.6,1.4,1.4c0,0.8-0.6,1.4-1.4,1.4C63.8-85.6,63.2-86.2,63.2-87z"/>
		<path class="st5" d="M70.4-80.5c0-1.3,0-2.4-0.1-3.3h2.5l0.1,1.7H73c0.5-0.9,1.7-1.9,3.6-1.9c2,0,4,1.3,4,4.8v6.7h-2.8v-6.3
			c0-1.6-0.6-2.8-2.1-2.8c-1.1,0-1.9,0.8-2.2,1.7c-0.1,0.2-0.1,0.6-0.1,0.9v6.6h-2.8V-80.5z"/>
		<path class="st5" d="M85.6-77.4c0.1,2,1.6,2.9,3.5,2.9c1.3,0,2.2-0.2,3.1-0.5l0.4,2c-1,0.4-2.3,0.7-3.9,0.7
			c-3.6,0-5.8-2.3-5.8-5.7c0-3.1,1.9-6,5.5-6c3.6,0,4.8,3,4.8,5.5c0,0.5,0,1-0.1,1.2H85.6z M90.5-79.4c0-1-0.4-2.7-2.3-2.7
			c-1.7,0-2.5,1.6-2.6,2.7H90.5z"/>
		<path class="st5" d="M98.7-87v3.2h2.7v2.1h-2.7v5c0,1.4,0.4,2.1,1.5,2.1c0.5,0,0.8-0.1,1.1-0.1l0.1,2.2c-0.4,0.2-1.2,0.3-2.1,0.3
			c-1,0-1.9-0.4-2.4-0.9c-0.6-0.6-0.9-1.7-0.9-3.1v-5.3h-1.6v-2.1h1.6v-2.5L98.7-87z"/>
		<path class="st5" d="M106.6-87c0,0.8-0.6,1.5-1.6,1.5c-0.9,0-1.6-0.7-1.6-1.5c0-0.9,0.6-1.5,1.6-1.5C106-88.5,106.6-87.8,106.6-87
			z M103.6-72.6v-11.2h2.8v11.2H103.6z"/>
		<path class="st5" d="M109.5-80.5c0-1.3,0-2.4-0.1-3.3h2.4l0.1,1.6h0.1c0.5-0.9,1.6-1.9,3.5-1.9c1.5,0,2.6,0.8,3.1,2.1h0
			c0.4-0.6,0.9-1.1,1.4-1.4c0.6-0.4,1.3-0.7,2.3-0.7c1.9,0,3.7,1.3,3.7,4.9v6.6h-2.8v-6.2c0-1.9-0.6-3-2-3c-1,0-1.7,0.7-2,1.5
			c-0.1,0.3-0.1,0.6-0.1,0.9v6.7h-2.8v-6.5c0-1.6-0.6-2.7-1.9-2.7c-1.1,0-1.8,0.8-2,1.6c-0.1,0.3-0.1,0.6-0.1,0.9v6.6h-2.8V-80.5z"
			/>
		<path class="st5" d="M133.8-75.7c0.9,0.5,2.3,1,3.8,1c1.8,0,2.8-0.9,2.8-2.1c0-1.2-0.8-1.9-2.8-2.6c-2.6-0.9-4.2-2.3-4.2-4.5
			c0-2.5,2.1-4.5,5.5-4.5c1.7,0,2.9,0.4,3.7,0.8l-0.7,2.3c-0.6-0.3-1.6-0.7-3.1-0.7c-1.8,0-2.6,1-2.6,1.9c0,1.2,0.9,1.8,3,2.5
			c2.7,1,4,2.4,4,4.6c0,2.5-1.9,4.7-5.9,4.7c-1.6,0-3.4-0.5-4.2-1L133.8-75.7z"/>
		<path class="st5" d="M148.8-87c0,0.8-0.6,1.5-1.6,1.5c-0.9,0-1.6-0.7-1.6-1.5c0-0.9,0.6-1.5,1.6-1.5
			C148.1-88.5,148.7-87.8,148.8-87z M145.7-72.6v-11.2h2.8v11.2H145.7z"/>
		<path class="st5" d="M151.5-75.2c0.6,0.4,1.8,0.8,2.9,0.8c1.2,0,1.8-0.5,1.8-1.3c0-0.8-0.5-1.1-1.8-1.6c-2.2-0.8-3.1-1.9-3.1-3.3
			c0-2,1.6-3.5,4.3-3.5c1.2,0,2.3,0.3,3,0.7l-0.6,2c-0.5-0.3-1.4-0.6-2.4-0.6c-1,0-1.6,0.5-1.6,1.2c0,0.7,0.5,1.1,2,1.6
			c2,0.7,3,1.8,3,3.4c0,2-1.6,3.5-4.6,3.5c-1.4,0-2.6-0.3-3.4-0.8L151.5-75.2z"/>
		<path class="st5" d="M164.5-87v3.2h2.7v2.1h-2.7v5c0,1.4,0.4,2.1,1.5,2.1c0.5,0,0.8-0.1,1.1-0.1l0.1,2.2c-0.4,0.2-1.2,0.3-2.1,0.3
			c-1,0-1.9-0.4-2.4-0.9c-0.6-0.6-0.9-1.7-0.9-3.1v-5.3h-1.6v-2.1h1.6v-2.5L164.5-87z"/>
		<path class="st5" d="M171.2-77.4c0.1,2,1.6,2.9,3.5,2.9c1.3,0,2.2-0.2,3.1-0.5l0.4,2c-1,0.4-2.3,0.7-3.9,0.7
			c-3.6,0-5.8-2.3-5.8-5.7c0-3.1,1.9-6,5.5-6c3.6,0,4.8,3,4.8,5.5c0,0.5,0,1-0.1,1.2H171.2z M176.2-79.4c0-1-0.4-2.7-2.3-2.7
			c-1.7,0-2.5,1.6-2.6,2.7H176.2z"/>
		<path class="st5" d="M181.1-80.5c0-1.3,0-2.4-0.1-3.3h2.4l0.1,1.6h0.1c0.5-0.9,1.6-1.9,3.5-1.9c1.5,0,2.6,0.8,3.1,2.1h0
			c0.4-0.6,0.9-1.1,1.4-1.4c0.6-0.4,1.3-0.7,2.3-0.7c1.9,0,3.7,1.3,3.7,4.9v6.6h-2.8v-6.2c0-1.9-0.6-3-2-3c-1,0-1.7,0.7-2,1.5
			c-0.1,0.3-0.1,0.6-0.1,0.9v6.7H188v-6.5c0-1.6-0.6-2.7-1.9-2.7c-1.1,0-1.8,0.8-2,1.6c-0.1,0.3-0.1,0.6-0.1,0.9v6.6h-2.8V-80.5z"/>
		<path class="st5" d="M203.7-87c0,0.8-0.6,1.5-1.6,1.5c-0.9,0-1.6-0.7-1.6-1.5c0-0.9,0.6-1.5,1.6-1.5
			C203.1-88.5,203.7-87.8,203.7-87z M200.7-72.6v-11.2h2.8v11.2H200.7z"/>
	</g>
</g>
<g>
	<polygon class="st5" points="-108.7,-166.9 -108.7,-136.4 -77.4,-151.7 -46.1,-166.9 -77.4,-182.2 -108.7,-197.4 	"/>
	<polygon class="st4" points="-108.7,-166.9 -108.7,-136.4 -140,-151.7 -171.3,-166.9 -140,-182.2 -108.7,-197.4 	"/>
	<polygon class="st5" points="-108.7,-54.5 -171.3,-85.1 -171.3,-166.9 -108.7,-136.3 	"/>
	<polygon class="st4" points="-108.7,-54.5 -46.1,-85.1 -46.1,-166.9 -108.7,-136.3 	"/>
</g>
</svg>
